<svg width="32" height="30" viewBox="0 0 32 30" fill="none" xmlns="http://www.w3.org/2000/svg">
<path d="M30.3526 7.49996H23.9999V1.55898C23.9999 0.730631 23.2362 0 22.3526 0H9.5527C8.66913 0 7.99992 0.730631 7.99992 1.55898V7.49996H1.55278C0.669209 7.49996 0 8.2306 0 9.05894V21.0589C0 21.8873 0.669209 22.5 1.55278 22.5H8.00008V28.5589C8.00008 29.3873 8.66929 30 9.55286 30H22.3528C23.2364 30 24.0001 29.3873 24.0001 28.5589V22.5H30.3527C31.2363 22.5 32 21.8873 32 21.0589V9.05894C31.9997 8.23045 31.2361 7.49996 30.3526 7.49996ZM28.7998 19.5H22.3525C21.4689 19.5 20.7997 20.2306 20.7997 21.0589V26.9999H11.1998V21.0589C11.1998 20.2306 10.4361 19.5 9.55254 19.5H3.1999V10.5H9.55254C10.4361 10.5 11.1998 9.88729 11.1998 9.05894V3.00007H20.7997V9.05894C20.7997 9.88729 21.4689 10.5 22.3525 10.5H28.7998V19.5Z" fill="#E7FE55"/>
</svg>
