<svg width="33" height="33" viewBox="0 0 33 33" fill="none" xmlns="http://www.w3.org/2000/svg">
<path d="M7.25994 18.9513V11.8893C7.25994 11.707 7.40764 11.5593 7.58994 11.5593H12.2099C12.3922 11.5593 12.5399 11.707 12.5399 11.8893V18.9513C12.5399 19.3158 12.8354 19.6113 13.1999 19.6113C13.5645 19.6113 13.8599 19.3158 13.8599 18.9513V11.8893C13.8599 10.978 13.1212 10.2393 12.2099 10.2393H7.58994C6.67864 10.2393 5.93994 10.978 5.93994 11.8893V18.9513C5.93994 19.3158 6.23543 19.6113 6.59994 19.6113C6.96446 19.6113 7.25994 19.3158 7.25994 18.9513ZM25.9105 15.1894L26.2407 10.5694H21.291L21.6211 15.1894H25.9105ZM27.1951 15.7318C27.1633 16.1679 26.7968 16.5094 26.3599 16.5094H21.1717C20.7345 16.5094 20.3666 16.1671 20.3364 15.7318L19.9356 10.1218C19.901 9.64855 20.2731 9.24939 20.7469 9.24939H26.7846C27.2585 9.24939 27.6305 9.64858 27.5961 10.1208L27.1951 15.7318Z" fill="#E7FE55"/>
<path d="M13.5301 31.6563C13.7124 31.6563 13.8601 31.5086 13.8601 31.3263V20.4363C13.8601 20.254 13.7124 20.1063 13.5301 20.1063H6.60012C6.23567 20.1063 5.94012 20.4019 5.94012 20.7663V31.3263C5.94012 31.5086 6.08781 31.6563 6.27012 31.6563H13.5301ZM13.5301 32.9763H6.27012C5.35881 32.9763 4.62012 32.2376 4.62012 31.3263V20.7663C4.62012 19.6729 5.50664 18.7863 6.60012 18.7863H13.5301C14.4414 18.7863 15.1801 19.525 15.1801 20.4363V31.3263C15.1801 32.2376 14.4414 32.9763 13.5301 32.9763ZM25.8721 15.8493V30.9963C25.8721 31.3608 25.5766 31.6563 25.2121 31.6563H22.3081C21.9437 31.6563 21.6481 31.3608 21.6481 30.9963V15.5193C21.6481 15.1548 21.3526 14.8593 20.9881 14.8593C20.6236 14.8593 20.3281 15.1548 20.3281 15.5193V30.9963C20.3281 32.0898 21.2146 32.9763 22.3081 32.9763H25.2121C26.3056 32.9763 27.1921 32.0898 27.1921 30.9963V15.8493C27.1921 15.4848 26.8966 15.1893 26.5321 15.1893C26.1676 15.1893 25.8721 15.4848 25.8721 15.8493ZM10.8901 10.8993H12.2101V1.26333C12.2101 0.205949 11.2685 -0.327207 10.3619 0.21652L8.7593 1.17822C8.09391 1.57729 7.59015 2.46703 7.59015 3.24334V10.8993H8.91015V3.24334C8.91015 2.93074 9.17057 2.47074 9.43834 2.31015L10.8901 1.43897L10.8901 10.8993ZM20.1763 1.32933H27.3452L26.2729 10.1598C26.229 10.5216 26.4867 10.8506 26.8486 10.8945C27.2104 10.9384 27.5394 10.6807 27.5833 10.3189L28.7101 1.03923V0.999303C28.7101 0.452644 28.2667 0.00930279 27.7201 0.00930279H19.8001C19.2534 0.00930279 18.8101 0.452644 18.8101 0.999303V1.04026L19.9701 10.3539C20.0152 10.7156 20.3449 10.9723 20.7067 10.9273C21.0684 10.8822 21.3251 10.5525 21.28 10.1908L20.1763 1.32933Z" fill="#E7FE55"/>
</svg>
