<svg width="30" height="30" viewBox="0 0 30 30" fill="none" xmlns="http://www.w3.org/2000/svg">
<g clip-path="url(#clip0_1_4295)">
<path d="M29.9055 6.70581L26.6457 0.451871C26.5039 0.174312 26.2205 0.00305176 25.9075 0.00305176H4.09252C3.77953 0.00305176 3.49606 0.174312 3.35433 0.451871L0.0944882 6.70581C0.0885827 6.71762 0 6.87116 0 7.08967V29.1645C0 29.6251 0.372047 29.9971 0.832677 29.9971H29.1673C29.628 29.9971 30 29.6251 30 29.1645V7.08967C30 6.87707 29.9114 6.71762 29.9055 6.70581ZM4.60039 1.66841H25.4055L27.7972 6.25699H2.20866L4.60039 1.66841ZM28.3346 28.3377H1.66535V12.5286H28.3346V28.3377ZM28.3346 10.8574H1.66535V7.92234H28.3346V10.8574Z" fill="#E7FE55"/>
<path d="M25.8365 14.1938H4.16917C3.70854 14.1938 3.33649 14.5659 3.33649 15.0265V25.8395C3.33059 26.2942 3.70854 26.6722 4.16917 26.6722H25.8365C26.2971 26.6722 26.6692 26.3001 26.6692 25.8395V15.0265C26.6692 14.5659 26.2971 14.1938 25.8365 14.1938ZM24.9979 25.0009H5.00185V15.8592H7.76563V17.1407C7.76563 17.6013 8.13768 17.9734 8.59831 17.9734C9.05894 17.9734 9.43098 17.6013 9.43098 17.1407V15.8592H11.0963V18.812C11.0963 19.2726 11.4684 19.6446 11.929 19.6446C12.3896 19.6446 12.7617 19.2726 12.7617 18.812V15.8592H24.9979V25.0009Z" fill="#E7FE55"/>
<path d="M5.13195 8.56006H4.16935C3.70872 8.56006 3.33667 8.93211 3.33667 9.39274C3.33667 9.85337 3.70872 10.2254 4.16935 10.2254H5.13195C5.59258 10.2254 5.96462 9.85337 5.96462 9.39274C5.96462 8.93211 5.59258 8.56006 5.13195 8.56006Z" fill="#E7FE55"/>
<path d="M12.0294 8.56006H11.0668C10.6062 8.56006 10.2341 8.93211 10.2341 9.39274C10.2341 9.85337 10.6062 10.2254 11.0668 10.2254H12.0294C12.49 10.2254 12.8621 9.85337 12.8621 9.39274C12.8621 8.93211 12.49 8.56006 12.0294 8.56006Z" fill="#E7FE55"/>
<path d="M18.9271 8.56006H17.9645C17.5039 8.56006 17.1318 8.93211 17.1318 9.39274C17.1318 9.85337 17.5098 10.2254 17.9645 10.2254H18.9271C19.3877 10.2254 19.7598 9.85337 19.7598 9.39274C19.7598 8.93211 19.3877 8.56006 18.9271 8.56006Z" fill="#E7FE55"/>
<path d="M25.8307 8.56006H24.8681C24.4074 8.56006 24.0354 8.93211 24.0354 9.39274C24.0354 9.85337 24.4074 10.2254 24.8681 10.2254H25.8307C26.2913 10.2254 26.6634 9.85337 26.6634 9.39274C26.6634 8.93211 26.2913 8.56006 25.8307 8.56006Z" fill="#E7FE55"/>
<path d="M11.3149 3.13293H7.05704C6.59641 3.13293 6.22437 3.50498 6.22437 3.96561C6.22437 4.42624 6.59641 4.79829 7.05704 4.79829H11.3149C11.7755 4.79829 12.1476 4.42624 12.1476 3.96561C12.1476 3.50498 11.7755 3.13293 11.3149 3.13293Z" fill="#E7FE55"/>
<path d="M22.9428 3.13293H18.685C18.2243 3.13293 17.8523 3.50498 17.8523 3.96561C17.8523 4.42624 18.2243 4.79829 18.685 4.79829H22.9428C23.4035 4.79829 23.7755 4.42624 23.7755 3.96561C23.7755 3.50498 23.4035 3.13293 22.9428 3.13293Z" fill="#E7FE55"/>
</g>
<defs>
<clipPath id="clip0_1_4295">
<rect width="30" height="30" fill="white"/>
</clipPath>
</defs>
</svg>
