<svg width="28" height="28" viewBox="0 0 28 28" fill="none" xmlns="http://www.w3.org/2000/svg">
<g clip-path="url(#clip0_1_4323)">
<path d="M21.2936 4.37724H20.7644L19.6783 0.562315C19.5846 0.231542 19.2759 0 18.9286 0H9.0715C8.72419 0 8.42098 0.231542 8.32175 0.562315L7.2357 4.37724H6.70647C5.42196 4.37724 4.37451 5.42469 4.37451 6.70919V21.2908C4.37451 22.5753 5.42196 23.6228 6.70647 23.6228H7.21917L8.32175 27.4377C8.41546 27.7685 8.72419 28 9.0715 28H18.9286C19.2759 28 19.5791 27.7685 19.6783 27.4377L20.7809 23.6228H21.2936C22.5781 23.6228 23.6255 22.5753 23.6255 21.2908V6.70919C23.6255 5.42469 22.5781 4.37724 21.2936 4.37724ZM9.65587 1.55464H18.3387L19.1436 4.37724H8.8565L9.65587 1.55464ZM18.3442 26.4509H9.65587L8.83996 23.6283H19.1601L18.3442 26.4509ZM21.2936 22.0681H6.70647C6.27646 22.0681 5.92915 21.7208 5.92915 21.2908V6.70919C5.92915 6.27919 6.27646 5.93188 6.70647 5.93188H21.2881C21.7181 5.93188 22.0654 6.27919 22.0654 6.70919V21.2908H22.0709C22.0709 21.7208 21.7236 22.0681 21.2936 22.0681Z" fill="#E7FE55"/>
<path d="M11.8611 7.66846H8.44309C8.01308 7.66846 7.66577 8.01577 7.66577 8.44577V11.8638C7.66577 12.2938 8.01308 12.6411 8.44309 12.6411H11.8611C12.2911 12.6411 12.6384 12.2938 12.6384 11.8638V8.44577C12.6384 8.01577 12.2911 7.66846 11.8611 7.66846ZM11.0838 11.0865H9.22041V9.22309H11.0838V11.0865Z" fill="#E7FE55"/>
<path d="M19.5569 7.66846H16.1389C15.7089 7.66846 15.3616 8.01577 15.3616 8.44577V11.8638C15.3616 12.2938 15.7089 12.6411 16.1389 12.6411H19.5569C19.9869 12.6411 20.3342 12.2938 20.3342 11.8638V8.44577C20.3342 8.01577 19.9869 7.66846 19.5569 7.66846ZM18.7796 11.0865H16.9162V9.22309H18.7796V11.0865Z" fill="#E7FE55"/>
<path d="M11.8611 15.3645H8.44309C8.01308 15.3645 7.66577 15.7118 7.66577 16.1418V19.5598C7.66577 19.9898 8.01308 20.3371 8.44309 20.3371H11.8611C12.2911 20.3371 12.6384 19.9898 12.6384 19.5598V16.1418C12.6384 15.7118 12.2911 15.3645 11.8611 15.3645ZM11.0838 18.7825H9.22041V16.9191H11.0838V18.7825Z" fill="#E7FE55"/>
<path d="M19.5569 15.3645H16.1389C15.7089 15.3645 15.3616 15.7118 15.3616 16.1418V19.5598C15.3616 19.9898 15.7089 20.3371 16.1389 20.3371H19.5569C19.9869 20.3371 20.3342 19.9898 20.3342 19.5598V16.1418C20.3342 15.7118 19.9869 15.3645 19.5569 15.3645ZM18.7796 18.7825H16.9162V16.9191H18.7796V18.7825Z" fill="#E7FE55"/>
</g>
<defs>
<clipPath id="clip0_1_4323">
<rect width="28" height="28" fill="white"/>
</clipPath>
</defs>
</svg>
