<svg width="29" height="26" viewBox="0 0 29 26" fill="none" xmlns="http://www.w3.org/2000/svg">
<path d="M1 5.5L5.5 1H10C10 1.59096 10.1164 2.1761 10.3425 2.72207C10.5687 3.26804 10.9002 3.76411 11.318 4.18198C11.736 4.59985 12.232 4.9313 12.7779 5.15746C13.3239 5.3836 13.909 5.5 14.5 5.5C15.091 5.5 15.6761 5.3836 16.2221 5.15746C16.768 4.9313 17.264 4.59985 17.6819 4.18198C18.0998 3.76411 18.4313 3.26804 18.6574 2.72207C18.8836 2.1761 19 1.59096 19 1H23.5L28 5.5L27.3678 11.8228C27.313 12.3702 26.7073 12.6744 26.2355 12.3913L23.5 10.75V22C23.5 23.6569 22.1569 25 20.5 25H8.5C6.84314 25 5.5 23.6569 5.5 22V10.75L2.76444 12.3913C2.29276 12.6744 1.68701 12.3702 1.63228 11.8228L1 5.5Z" stroke="#E7FE55" stroke-width="2" stroke-linecap="round" stroke-linejoin="round"/>
</svg>
