<svg width="23" height="23" viewBox="0 0 23 23" fill="none" xmlns="http://www.w3.org/2000/svg">
<circle cx="11.5" cy="11.5" r="11.5" fill="#33B166"/>
<path d="M17.3257 6.5724C17.1338 6.39416 16.8369 6.39416 16.6451 6.5724L9.5357 13.1768L6.3545 10.2216C6.16264 10.0433 5.86575 10.0433 5.67389 10.2216L4.28518 11.5116C4.18335 11.6062 4.12549 11.739 4.12549 11.878C4.12549 12.017 4.18335 12.1497 4.28519 12.2443L8.50097 16.1605C8.64004 16.2898 8.8032 16.3906 8.98028 16.4588L9.15992 15.9922L8.98029 16.4588C9.15733 16.5269 9.34597 16.5616 9.5357 16.5616C9.72544 16.5616 9.91408 16.5269 10.0911 16.4588L9.91149 15.9922L10.0911 16.4588C10.2682 16.3906 10.4313 16.2899 10.5703 16.1607C10.5704 16.1606 10.5704 16.1606 10.5704 16.1605L14.9549 12.0876L14.6146 11.7212L14.9549 12.0875L18.7144 8.59511C18.8162 8.50051 18.8741 8.36779 18.8741 8.22879C18.8741 8.08979 18.8162 7.95707 18.7144 7.86247L17.3257 6.5724Z" fill="white" stroke="white" stroke-linejoin="round"/>
</svg>
