<svg width="24" height="24" viewBox="0 0 24 24" fill="none" xmlns="http://www.w3.org/2000/svg">
<path d="M1 12H23M5.88889 12V14.4444M18.1111 12V14.4444M7.11111 5.88889H6.86667C4.81314 5.88889 3.78637 5.88889 3.00204 6.28853C2.3121 6.64007 1.75118 7.20099 1.39964 7.89093C1 8.67526 1 9.70198 1 11.7556V17.1333C1 19.1869 1 20.2136 1.39964 20.998C1.75118 21.6879 2.3121 22.2488 3.00204 22.6003C3.78637 23 4.81314 23 6.86667 23H17.1333C19.1869 23 20.2136 23 20.998 22.6003C21.6879 22.2488 22.2488 21.6879 22.6003 20.998C23 20.2136 23 19.1869 23 17.1333V11.7556C23 9.70198 23 8.67526 22.6003 7.89093C22.2488 7.20099 21.6879 6.64007 20.998 6.28853C20.2136 5.88889 19.1869 5.88889 17.1333 5.88889H16.8889M7.11111 5.88889V4.66667C7.11111 3.5277 7.11111 2.95822 7.29718 2.50899C7.54528 1.91004 8.02115 1.43417 8.6201 1.18607C9.06933 1 9.63879 1 10.7778 1H13.2222C14.3612 1 14.9306 1 15.3799 1.18607C15.9788 1.43417 16.4548 1.91004 16.7029 2.50899C16.8889 2.95822 16.8889 3.5277 16.8889 4.66667V5.88889M7.11111 5.88889H16.8889" stroke="white" stroke-width="2" stroke-linecap="round" stroke-linejoin="round"/>
</svg>
