<svg width="16" height="12" viewBox="0 0 16 12" fill="none" xmlns="http://www.w3.org/2000/svg">
<path d="M13.6938 1.37667C13.5042 1.20778 13.2181 1.20778 13.0285 1.37667L5.91071 7.71802L2.72145 4.87667C2.53188 4.70778 2.24582 4.70778 2.05625 4.87667L0.667397 6.11401C0.560906 6.20888 0.499999 6.34472 0.5 6.48734C0.500001 6.62997 0.560909 6.7658 0.667401 6.86067L4.88361 10.6168C4.88364 10.6169 4.88367 10.6169 4.8837 10.6169C4.88371 10.6169 4.88373 10.617 4.88374 10.617C5.02345 10.7415 5.18629 10.8377 5.36172 10.9024C5.53717 10.9672 5.72358 11 5.91071 11C6.09785 11 6.28426 10.9672 6.45971 10.9024C6.63519 10.8376 6.79808 10.7414 6.93782 10.6168L11.3228 6.71035L11.0019 6.35022L11.3228 6.71034L15.0826 3.36067C15.1891 3.26579 15.25 3.12996 15.25 2.98734C15.25 2.84472 15.1891 2.70888 15.0826 2.61401L13.6938 1.37667Z" fill="black" stroke="black" stroke-linejoin="round"/>
</svg>
