<svg width="22" height="22" viewBox="0 0 22 22" fill="none" xmlns="http://www.w3.org/2000/svg">
<g clip-path="url(#clip0_78_528)">
<path d="M11 0C4.9345 0 0 4.9345 0 11C0 17.0655 4.9345 22 11 22C17.0655 22 22 17.0655 22 11C22 4.9345 17.0655 0 11 0ZM11 19.5956C6.26025 19.5956 2.40437 15.7398 2.40437 11C2.40437 6.26048 6.26025 2.40437 11 2.40437C15.7398 2.40437 19.5956 6.26048 19.5956 11C19.5956 15.7398 15.7398 19.5956 11 19.5956Z" fill="white"/>
<path d="M11.952 11.0132V6.40288C11.952 5.8881 11.5349 5.47095 11.0203 5.47095C10.5056 5.47095 10.0884 5.8881 10.0884 6.40288V11.3109C10.0884 11.3256 10.092 11.3393 10.0927 11.354C10.0804 11.6074 10.1677 11.8647 10.3613 12.0583L13.832 15.5287C14.196 15.8928 14.7861 15.8928 15.1498 15.5287C15.5136 15.1647 15.5139 14.5747 15.1498 14.2109L11.952 11.0132Z" fill="white"/>
</g>
<defs>
<clipPath id="clip0_78_528">
<rect width="22" height="22" fill="white"/>
</clipPath>
</defs>
</svg>
