<svg width="20" height="20" viewBox="0 0 20 20" fill="none" xmlns="http://www.w3.org/2000/svg">
<g clip-path="url(#clip0_1110_3749)">
<path d="M10 0.833496C4.94546 0.833496 0.833374 4.94558 0.833374 10.0002C0.833374 15.0548 4.94546 19.1668 10 19.1668C15.0547 19.1668 19.1667 15.0547 19.1667 10.0002C19.1667 4.94558 15.0547 0.833496 10 0.833496ZM10 17.1632C6.05024 17.1632 2.83702 13.95 2.83702 10.0002C2.83702 6.05056 6.05024 2.83714 10 2.83714C13.9498 2.83714 17.1631 6.05056 17.1631 10.0002C17.1631 13.95 13.9498 17.1632 10 17.1632Z" fill="#E7FE55"/>
<path d="M10.7938 10.0111V6.16919C10.7938 5.7402 10.4461 5.39258 10.0173 5.39258C9.58838 5.39258 9.24072 5.7402 9.24072 6.16919V10.2592C9.24072 10.2714 9.24373 10.2829 9.24432 10.2951C9.23411 10.5063 9.30686 10.7207 9.46813 10.882L12.3604 13.7741C12.6638 14.0774 13.1555 14.0774 13.4586 13.7741C13.7618 13.4707 13.762 12.979 13.4586 12.6759L10.7938 10.0111Z" fill="#E7FE55"/>
</g>
<defs>
<clipPath id="clip0_1110_3749">
<rect width="20" height="20" fill="white"/>
</clipPath>
</defs>
</svg>
