<svg width="24" height="24" viewBox="0 0 24 24" fill="none" xmlns="http://www.w3.org/2000/svg">
<path d="M1 12C1 6.81455 1 4.22182 2.61092 2.61092C4.22182 1 6.81455 1 12 1C17.1854 1 19.7782 1 21.389 2.61092C23 4.22182 23 6.81455 23 12C23 17.1854 23 19.7782 21.389 21.389C19.7782 23 17.1854 23 12 23C6.81455 23 4.22182 23 2.61092 21.389C1 19.7782 1 17.1854 1 12Z" stroke="#7E7E7E" stroke-width="2"/>
<path d="M14.75 9.25002L9.25002 14.75M9.25 9.25L14.75 14.75" stroke="#7E7E7E" stroke-width="2" stroke-linecap="round"/>
</svg>
