<svg width="80" height="56" viewBox="0 0 80 56" fill="none" xmlns="http://www.w3.org/2000/svg">
<path d="M69.7431 2.93415C68.9757 2.22121 67.7881 2.22121 67.0207 2.93415L29.8379 37.4759L12.9791 21.8146C12.2117 21.1017 11.0241 21.1017 10.2567 21.8146L3.07164 28.4893C2.6643 28.8677 2.43286 29.3986 2.43286 29.9546C2.43286 30.5106 2.66431 31.0415 3.07166 31.4199L24.8839 51.6824C24.8841 51.6826 24.8842 51.6827 24.8844 51.6829C25.5476 52.2993 26.3271 52.7812 27.1751 53.1076C28.0231 53.4341 28.9276 53.6006 29.8379 53.6006C30.7482 53.6006 31.6527 53.4341 32.5007 53.1076C33.3489 52.7811 34.1286 52.299 34.7919 51.6824L57.477 30.609L56.1158 29.1437L57.4771 30.609L76.9282 12.5395C77.3355 12.161 77.5669 11.6301 77.5669 11.0742C77.5669 10.5182 77.3355 9.98727 76.9282 9.60886L69.7431 2.93415Z" fill="#161716" stroke="#161716" stroke-width="4" stroke-linejoin="round"/>
</svg>
