<svg width="81" height="57" viewBox="0 0 81 57" fill="none" xmlns="http://www.w3.org/2000/svg">
<path d="M70.2431 3.43412C69.4757 2.72118 68.2881 2.72118 67.5207 3.43412L30.3379 37.9759L13.4791 22.3146C12.7117 21.6016 11.5241 21.6016 10.7567 22.3146L3.57164 28.9893C3.1643 29.3677 2.93286 29.8986 2.93286 30.4546C2.93286 31.0106 3.16431 31.5415 3.57166 31.9199L25.3839 52.1824C26.0472 52.799 26.8269 53.281 27.6751 53.6076C28.5231 53.934 29.4276 54.1005 30.3379 54.1005C31.2482 54.1005 32.1527 53.934 33.0007 53.6076C33.8489 53.281 34.6286 52.799 35.2919 52.1824L57.977 31.109L56.6158 29.6437L57.9771 31.109L77.4282 13.0394C77.8355 12.661 78.0669 12.1301 78.0669 11.5741C78.0669 11.0181 77.8355 10.4872 77.4282 10.1088L70.2431 3.43412Z" fill="white" stroke="white" stroke-width="4" stroke-linejoin="round"/>
</svg>
