<svg width="22" height="22" viewBox="0 0 22 22" fill="none" xmlns="http://www.w3.org/2000/svg">
<path d="M21.8595 11.4879C21.9512 11.3417 21.9998 11.1727 21.9998 11.0001C21.9998 10.8275 21.9512 10.6584 21.8595 10.5122C18.8839 5.77801 15.5341 3.66675 11 3.66675C6.46594 3.66675 3.11673 5.77801 0.140599 10.5122C0.0487359 10.6584 0 10.8275 0 11.0001C0 11.1727 0.0487359 11.3418 0.140599 11.4879C3.11673 16.2221 6.46549 18.3334 11 18.3334C15.5346 18.3334 18.8833 16.2221 21.8595 11.4879ZM11 16.5001C7.26848 16.5001 4.55342 14.8489 2.00757 11.0001C4.55342 7.15127 7.26848 5.50008 11 5.50008C14.7316 5.50008 17.4471 7.15173 19.993 11.0001C17.4462 14.8481 14.7309 16.5001 11 16.5001Z" fill="black"/>
<path d="M10.9998 6.41675C10.0933 6.41675 9.20719 6.68556 8.45347 7.18918C7.69975 7.6928 7.11229 8.40862 6.76539 9.24612C6.41849 10.0836 6.32772 11.0052 6.50457 11.8942C6.68142 12.7833 7.11794 13.6 7.75893 14.241C8.39992 14.882 9.21659 15.3185 10.1057 15.4953C10.9947 15.6722 11.9163 15.5814 12.7538 15.2345C13.5913 14.8876 14.3071 14.3002 14.8107 13.5464C15.3143 12.7927 15.5831 11.9066 15.5831 11.0001C15.5817 9.78495 15.0984 8.61999 14.2391 7.76076C13.3799 6.90152 12.215 6.41818 10.9998 6.41675ZM10.9998 13.7501C10.4559 13.7501 9.92424 13.5888 9.47201 13.2866C9.01978 12.9844 8.6673 12.555 8.45916 12.0525C8.25102 11.55 8.19656 10.997 8.30267 10.4636C8.40878 9.93014 8.67069 9.44013 9.05529 9.05554C9.43988 8.67094 9.92988 8.40903 10.4633 8.30292C10.9968 8.19681 11.5497 8.25127 12.0522 8.45941C12.5547 8.66755 12.9842 9.02003 13.2864 9.47226C13.5885 9.9245 13.7498 10.4562 13.7498 11.0001C13.749 11.7292 13.459 12.4282 12.9435 12.9437C12.4279 13.4593 11.7289 13.7493 10.9998 13.7501Z" fill="black"/>
<path d="M1 20L21 2" stroke="black" stroke-width="2" stroke-linecap="round"/>
</svg>
