<svg width="28" height="25" viewBox="0 0 28 25" fill="none" xmlns="http://www.w3.org/2000/svg">
<path d="M13.9772 0C6.74588 0 0.829346 5.61249 0.829346 12.525C0.829346 18.775 5.64146 23.9625 11.9261 24.9V16.15H8.58658V12.525H11.9261V9.76249C11.9261 6.62499 13.8852 4.89999 16.896 4.89999C18.3291 4.89999 19.828 5.13749 19.828 5.13749V8.22499H18.1714C16.541 8.22499 16.0283 9.18749 16.0283 10.175V12.525H19.6834L19.0917 16.15H16.0283V24.9C19.1264 24.4347 21.9477 22.9319 23.9826 20.6625C26.0175 18.3933 27.1321 15.507 27.125 12.525C27.125 5.61249 21.2085 0 13.9772 0Z" fill="#5E5E5E"/>
</svg>
