<svg width="20" height="20" viewBox="0 0 20 20" fill="none" xmlns="http://www.w3.org/2000/svg">
                            <path d="M13.8157 2.00008C13.6119 1.41575 13.2314 0.909286 12.7269 0.55091C12.2224 0.192534 11.6188 0 11 0C10.3812 0 9.77763 0.192534 9.27312 0.55091C8.7686 0.909286 8.38807 1.41575 8.1843 2.00008H0V4.00008H8.1843C8.38807 4.58442 8.7686 5.09088 9.27312 5.44926C9.77763 5.80764 10.3812 6.00017 11 6.00017C11.6188 6.00017 12.2224 5.80764 12.7269 5.44926C13.2314 5.09088 13.6119 4.58442 13.8157 4.00008H20V2.00008H13.8157ZM11 4.00008C10.8022 4.00008 10.6089 3.94144 10.4444 3.83155C10.28 3.72167 10.1518 3.56549 10.0761 3.38277C10.0004 3.20004 9.98063 2.99898 10.0192 2.80499C10.0578 2.61101 10.153 2.43283 10.2929 2.29298C10.4327 2.15313 10.6109 2.05788 10.8049 2.0193C10.9989 1.98071 11.2 2.00052 11.3827 2.07621C11.5654 2.15189 11.7216 2.28007 11.8315 2.44451C11.9414 2.60896 12 2.8023 12 3.00008C11.9998 3.26525 11.8944 3.51951 11.7069 3.70702C11.5194 3.89452 11.2652 3.99993 11 4.00008Z" fill="white"/>
                            <path d="M5 7C4.38162 7.0019 3.77898 7.19516 3.27483 7.55326C2.77068 7.91136 2.38974 8.41674 2.1843 9H0V11H2.1843C2.38807 11.5843 2.7686 12.0908 3.27312 12.4492C3.77763 12.8076 4.38115 13.0001 5 13.0001C5.61885 13.0001 6.22237 12.8076 6.72688 12.4492C7.2314 12.0908 7.61193 11.5843 7.8157 11H20V9H7.8157C7.61026 8.41674 7.22932 7.91136 6.72517 7.55326C6.22102 7.19516 5.61838 7.0019 5 7ZM5 11C4.80222 11 4.60888 10.9414 4.44443 10.8315C4.27998 10.7216 4.15181 10.5654 4.07612 10.3827C4.00043 10.2 3.98063 9.99889 4.01921 9.80491C4.0578 9.61093 4.15304 9.43275 4.29289 9.29289C4.43275 9.15304 4.61093 9.0578 4.80491 9.01921C4.99889 8.98063 5.19996 9.00043 5.38268 9.07612C5.56541 9.15181 5.72159 9.27998 5.83147 9.44443C5.94135 9.60888 6 9.80222 6 10C5.99984 10.2652 5.89443 10.5194 5.70693 10.7069C5.51943 10.8944 5.26517 10.9998 5 11Z" fill="white"/>
                            <path d="M14 14C13.3816 14.0019 12.779 14.1952 12.2748 14.5533C11.7707 14.9114 11.3897 15.4167 11.1843 16H0V18H11.1843C11.3881 18.5843 11.7686 19.0908 12.2731 19.4492C12.7776 19.8076 13.3812 20.0001 14 20.0001C14.6188 20.0001 15.2224 19.8076 15.7269 19.4492C16.2314 19.0908 16.6119 18.5843 16.8157 18H20V16H16.8157C16.6103 15.4167 16.2293 14.9114 15.7252 14.5533C15.221 14.1952 14.6184 14.0019 14 14ZM14 18C13.8022 18 13.6089 17.9414 13.4444 17.8315C13.28 17.7216 13.1518 17.5654 13.0761 17.3827C13.0004 17.2 12.9806 16.9989 13.0192 16.8049C13.0578 16.6109 13.153 16.4327 13.2929 16.2929C13.4327 16.153 13.6109 16.0578 13.8049 16.0192C13.9989 15.9806 14.2 16.0004 14.3827 16.0761C14.5654 16.1518 14.7216 16.28 14.8315 16.4444C14.9414 16.6089 15 16.8022 15 17C14.9998 17.2652 14.8944 17.5194 14.7069 17.7069C14.5194 17.8944 14.2652 17.9998 14 18Z" fill="white"/>
                        </svg>    