<svg width="11" height="11" viewBox="0 0 11 11" fill="none" xmlns="http://www.w3.org/2000/svg">
<path fill-rule="evenodd" clip-rule="evenodd" d="M4.37153 0.381757C4.18855 0.462257 4.09856 0.608273 4.0793 0.773425C4.071 0.853316 4.05854 0.932638 4.04161 1.01164C4.00565 1.17933 3.93753 1.41629 3.8099 1.68425C3.55529 2.21879 3.06841 2.86906 2.12878 3.35219C0.804604 4.03304 0.313427 5.56286 0.52332 6.93237C0.737607 8.33061 1.70817 9.77982 3.62848 10.3064C3.81981 10.3589 4.0307 10.3215 4.17868 10.2087C4.35976 10.0708 4.36899 9.88797 4.32297 9.70344C4.2892 9.56801 4.21768 9.22891 4.21768 8.82384C4.21768 8.69277 4.22505 8.55829 4.24207 8.42345C4.5372 8.98 4.93728 9.38589 5.33714 9.67616C5.93196 10.108 6.49406 10.2649 6.66139 10.3055C6.78837 10.3363 6.92332 10.3382 7.04765 10.2972C8.51596 9.81405 9.44035 9.1583 9.95675 8.40863C10.472 7.66059 10.5446 6.87186 10.4293 6.1767C10.3147 5.48512 10.0119 4.86743 9.74572 4.42944C9.54441 4.09821 9.35873 3.86089 9.27352 3.75702C9.16903 3.62972 9.03287 3.53145 8.83896 3.51331C8.68445 3.49885 8.52967 3.53864 8.41263 3.62289L7.54781 4.24548C7.62208 3.25802 7.19984 2.4284 6.67576 1.80318C6.29518 1.34918 5.86095 1.0005 5.52464 0.766101C5.35571 0.648326 5.20921 0.55786 5.10322 0.495913C5.05012 0.464908 5.00702 0.44094 4.97607 0.424169C4.79283 0.324829 4.57306 0.293103 4.37153 0.381757ZM3.1202 9.08229C3.11531 8.99973 3.11248 8.91326 3.11248 8.82384C3.11249 8.34521 3.19359 7.7411 3.51479 7.1796C3.62238 6.99157 3.7569 6.80826 3.92433 6.6361C4.06521 6.49121 4.29897 6.43129 4.51493 6.48471C4.73088 6.53812 4.88578 6.69415 4.90617 6.87891C5.03117 8.01015 5.58399 8.64276 6.06834 8.99436C6.31585 9.17408 6.55463 9.28669 6.72759 9.35347C7.39513 9.42048 8.71302 8.36998 8.99518 7.96037C9.36067 7.42978 9.42626 6.85463 9.33425 6.29958C9.22677 5.65133 8.90394 5.05146 8.6471 4.6623L6.93012 5.89833C6.73383 6.03967 6.44411 6.04881 6.23522 5.92029C6.02634 5.79172 5.95517 5.56055 6.06447 5.36569C6.79175 4.0693 6.37558 3.04664 5.76596 2.31939C5.52392 2.03071 5.25154 1.79035 5.0079 1.60416C4.96364 1.73193 4.90827 1.87042 4.83892 2.016C4.74044 2.22272 4.61346 2.44447 4.45 2.67022C4.08396 3.17572 3.53513 3.7013 2.71452 4.12324C1.91198 4.53587 1.43616 5.62015 1.61984 6.81863C1.75831 7.72219 2.25729 8.56784 3.1202 9.08229Z" fill="white"/>
</svg>
