<svg width="23" height="26" viewBox="0 0 23 26" fill="none" xmlns="http://www.w3.org/2000/svg">
<path d="M7.55088 18.5353C7.55088 20.6157 5.86438 22.3022 3.78398 22.3022C1.70359 22.3022 0.0170898 20.6157 0.0170898 18.5353C0.0170898 16.4549 1.70359 14.7684 3.78398 14.7684C5.86438 14.7684 7.55088 16.4549 7.55088 18.5353Z" fill="white"/>
<path d="M22.7086 6.7354C22.7086 8.8158 21.0221 10.5023 18.9417 10.5023C16.8613 10.5023 15.1748 8.8158 15.1748 6.7354C15.1748 4.655 16.8613 2.96851 18.9417 2.96851C21.0221 2.96851 22.7086 4.655 22.7086 6.7354Z" fill="white"/>
<path d="M0 4.59436C3.05514 2.05693 7.58881 2.47662 10.1262 5.53176L22.5914 20.5402C19.5362 23.0776 15.0026 22.6579 12.4651 19.6028L0 4.59436Z" fill="white"/>
</svg>
