<svg width="30" height="30" viewBox="0 0 30 30" fill="none" xmlns="http://www.w3.org/2000/svg">
<path fill-rule="evenodd" clip-rule="evenodd" d="M8.80448 0.184093C6.36266 0.294268 4.24622 0.891261 2.53724 2.59302C0.822292 4.30372 0.232712 6.42853 0.122263 8.84495C0.0536046 10.3532 -0.347871 21.7474 0.816324 24.7355C1.60141 26.7514 3.14766 28.3014 5.18202 29.089C6.13128 29.4583 7.21491 29.7082 8.80448 29.7812C22.0957 30.3827 27.0226 30.0552 29.1003 24.7355C29.4689 23.7886 29.7227 22.7059 29.7928 21.1203C30.4003 7.79504 29.6943 4.9067 27.3779 2.59302C25.5405 0.760237 23.3793 -0.487379 8.80448 0.184093ZM8.92684 27.1012C7.4716 27.0357 6.68205 26.7932 6.15518 26.5893C4.82979 26.0741 3.83425 25.0827 3.32231 23.7651C2.43573 21.4946 2.72977 10.7107 2.80888 8.9658C2.88649 7.25659 3.23276 5.69449 4.43875 4.48852C5.9313 2.99966 7.85967 2.26998 20.9897 2.86255C22.7032 2.93997 24.2689 3.28553 25.4778 4.48852C26.9704 5.97737 27.7107 7.92057 27.1077 21.0002C27.042 22.4518 26.7988 23.2395 26.5943 23.7651C25.2435 27.2266 22.136 27.7072 8.92684 27.1012ZM21.1345 7.03441C21.1345 8.02004 21.936 8.82151 22.9256 8.82151C23.9151 8.82151 24.7181 8.02004 24.7181 7.03441C24.7181 6.04879 23.9151 5.24804 22.9256 5.24804C21.936 5.24804 21.1345 6.04879 21.1345 7.03441ZM7.294 14.9819C7.294 19.2043 10.7254 22.6276 14.9583 22.6276C19.1912 22.6276 22.6226 19.2043 22.6226 14.9819C22.6226 10.7595 19.1912 7.33837 14.9583 7.33837C10.7254 7.33837 7.294 10.7595 7.294 14.9819ZM9.98359 14.9819C9.98359 12.2424 12.2105 10.0198 14.9583 10.0198C17.7061 10.0198 19.933 12.2424 19.933 14.9819C19.933 17.7229 17.7061 19.9462 14.9583 19.9462C12.2105 19.9462 9.98359 17.7229 9.98359 14.9819Z" fill="white"/>
</svg>
