<svg width="22" height="22" viewBox="0 0 22 22" fill="none" xmlns="http://www.w3.org/2000/svg">
<path fill-rule="evenodd" clip-rule="evenodd" d="M6.45662 0.135002C4.66595 0.215796 3.11389 0.653591 1.86064 1.90155C0.603014 3.15606 0.170656 4.71426 0.0896593 6.4863C0.03931 7.59232 -0.255106 15.9481 0.598638 18.1394C1.17437 19.6177 2.30828 20.7544 3.80015 21.3319C4.49627 21.6027 5.29093 21.786 6.45662 21.8395C16.2035 22.2806 19.8166 22.0405 21.3402 18.1394C21.6105 17.445 21.7966 16.651 21.8481 15.4882C22.2935 5.71636 21.7758 3.59825 20.0771 1.90155C18.7297 0.557507 17.1448 -0.357412 6.45662 0.135002ZM6.54635 19.8742C5.47917 19.8262 4.90017 19.6484 4.5138 19.4988C3.54184 19.121 2.81179 18.394 2.43636 17.4277C1.7862 15.7627 2.00183 7.85455 2.05984 6.57492C2.11676 5.3215 2.37069 4.17596 3.25508 3.29158C4.34962 2.19975 5.76376 1.66465 15.3924 2.0992C16.649 2.15597 17.7972 2.40939 18.6838 3.29158C19.7783 4.38341 20.3212 5.80842 19.879 15.4001C19.8308 16.4647 19.6524 17.0423 19.5025 17.4277C18.5119 19.9662 16.2331 20.3186 6.54635 19.8742ZM15.4986 5.15857C15.4986 5.88136 16.0864 6.46911 16.8121 6.46911C17.5378 6.46911 18.1266 5.88136 18.1266 5.15857C18.1266 4.43578 17.5378 3.84856 16.8121 3.84856C16.0864 3.84856 15.4986 4.43578 15.4986 5.15857ZM5.34893 10.9867C5.34893 14.0831 7.8653 16.5936 10.9694 16.5936C14.0735 16.5936 16.5899 14.0831 16.5899 10.9867C16.5899 7.8903 14.0735 5.38147 10.9694 5.38147C7.8653 5.38147 5.34893 7.8903 5.34893 10.9867ZM7.3213 10.9867C7.3213 8.97777 8.95436 7.34782 10.9694 7.34782C12.9845 7.34782 14.6175 8.97777 14.6175 10.9867C14.6175 12.9968 12.9845 14.6272 10.9694 14.6272C8.95436 14.6272 7.3213 12.9968 7.3213 10.9867Z" fill="white"/>
</svg>
