<svg width="25" height="25" viewBox="0 0 25 25" fill="none" xmlns="http://www.w3.org/2000/svg">
<path fill-rule="evenodd" clip-rule="evenodd" d="M7.33707 0.153411C5.30222 0.245223 3.53852 0.742718 2.11437 2.16085C0.685244 3.58643 0.193927 5.35711 0.101886 7.37079C0.0446705 8.62764 -0.289893 18.1228 0.68027 20.6129C1.33451 22.2929 2.62305 23.5845 4.31835 24.2408C5.1094 24.5485 6.01242 24.7568 7.33707 24.8176C18.4131 25.3189 22.5189 25.046 24.2502 20.6129C24.5574 19.8238 24.7689 18.9216 24.8273 17.6002C25.3336 6.49586 24.7453 4.08892 22.8149 2.16085C21.2838 0.63353 19.4828 -0.40615 7.33707 0.153411ZM7.43904 22.5844C6.22633 22.5298 5.56837 22.3277 5.12931 22.1577C4.02482 21.7284 3.19521 20.9023 2.76859 19.8042C2.02977 17.9121 2.27481 8.92562 2.34073 7.4715C2.40541 6.04716 2.69397 4.74541 3.69896 3.74043C4.94275 2.49971 6.54972 1.89165 17.4914 2.38546C18.9193 2.44997 20.2241 2.73794 21.2315 3.74043C22.4753 4.98114 23.0923 6.60048 22.5898 17.5002C22.535 18.7098 22.3323 19.3662 22.1619 19.8042C21.0363 22.6889 18.4466 23.0893 7.43904 22.5844ZM17.6121 5.86201C17.6121 6.68337 18.28 7.35126 19.1047 7.35126C19.9293 7.35126 20.5984 6.68337 20.5984 5.86201C20.5984 5.04066 19.9293 4.37337 19.1047 4.37337C18.28 4.37337 17.6121 5.04066 17.6121 5.86201ZM6.07833 12.4849C6.07833 16.0036 8.93783 18.8563 12.4652 18.8563C15.9927 18.8563 18.8522 16.0036 18.8522 12.4849C18.8522 8.96625 15.9927 6.1153 12.4652 6.1153C8.93783 6.1153 6.07833 8.96625 6.07833 12.4849ZM8.31966 12.4849C8.31966 10.202 10.1754 8.34979 12.4652 8.34979C14.7551 8.34979 16.6108 10.202 16.6108 12.4849C16.6108 14.7691 14.7551 16.6219 12.4652 16.6219C10.1754 16.6219 8.31966 14.7691 8.31966 12.4849Z" fill="#686868"/>
</svg>
