<svg width="20" height="20" viewBox="0 0 20 20" fill="none" xmlns="http://www.w3.org/2000/svg">
<path fill-rule="evenodd" clip-rule="evenodd" d="M5.86966 0.122729C4.24177 0.196179 2.83081 0.594174 1.69149 1.72868C0.548195 2.86915 0.155141 4.28569 0.0815084 5.89663C0.0357364 6.90211 -0.231914 14.4983 0.544216 16.4903C1.06761 17.8343 2.09844 18.8676 3.45468 19.3927C4.08752 19.6388 4.80994 19.8055 5.86966 19.8541C14.7305 20.2551 18.0151 20.0368 19.4002 16.4903C19.646 15.8591 19.8151 15.1373 19.8619 14.0802C20.2669 5.19669 19.7962 3.27113 18.2519 1.72868C17.027 0.506824 15.5862 -0.32492 5.86966 0.122729ZM5.95123 18.0675C4.98107 18.0238 4.4547 17.8622 4.10345 17.7262C3.21986 17.3828 2.55617 16.7218 2.21487 15.8434C1.62382 14.3297 1.81985 7.1405 1.87259 5.9772C1.92433 4.83772 2.15517 3.79632 2.95916 2.99235C3.9542 1.99977 5.23978 1.51332 13.9931 1.90837C15.1354 1.95998 16.1792 2.19035 16.9852 2.99235C17.9803 3.98491 18.4738 5.28038 18.0718 14.0001C18.028 14.9679 17.8658 15.493 17.7295 15.8434C16.829 18.1511 14.7573 18.4715 5.95123 18.0675ZM14.0897 4.68961C14.0897 5.34669 14.624 5.88101 15.2837 5.88101C15.9434 5.88101 16.4788 5.34669 16.4788 4.68961C16.4788 4.03253 15.9434 3.49869 15.2837 3.49869C14.624 3.49869 14.0897 4.03253 14.0897 4.68961ZM4.86267 9.98793C4.86267 12.8029 7.15027 15.0851 9.9722 15.0851C12.7941 15.0851 15.0817 12.8029 15.0817 9.98793C15.0817 7.173 12.7941 4.89224 9.9722 4.89224C7.15027 4.89224 4.86267 7.173 4.86267 9.98793ZM6.65573 9.98793C6.65573 8.1616 8.14033 6.67983 9.9722 6.67983C11.8041 6.67983 13.2887 8.1616 13.2887 9.98793C13.2887 11.8153 11.8041 13.2975 9.9722 13.2975C8.14033 13.2975 6.65573 11.8153 6.65573 9.98793Z" fill="#E7FE55"/>
</svg>
