<svg width="28" height="25" viewBox="0 0 28 25" fill="none" xmlns="http://www.w3.org/2000/svg">
<path d="M13.9772 0C6.71507 0 0.829346 5.5957 0.829346 12.5C0.829346 19.4043 6.71507 25 13.9772 25C21.2394 25 27.1251 19.4043 27.1251 12.5C27.1251 5.5957 21.2394 0 13.9772 0ZM10.2999 17.7295H7.73711V9.93164H10.2999V17.7295ZM8.94918 8.95508H8.92864C7.99904 8.95508 7.39814 8.35938 7.39814 7.60254C7.39814 6.83106 8.01958 6.25 8.96459 6.25C9.90959 6.25 10.4899 6.83106 10.5105 7.60254C10.5156 8.35449 9.91473 8.95508 8.94918 8.95508ZM20.5511 17.7295H17.6442V13.6963C17.6442 12.6416 17.1923 11.9189 16.1908 11.9189C15.4255 11.9189 14.9993 12.4072 14.8041 12.876C14.7322 13.042 14.7425 13.2764 14.7425 13.5156V17.7295H11.8612C11.8612 17.7295 11.8972 10.5811 11.8612 9.93164H14.7425V11.1572C14.9119 10.6201 15.8313 9.8584 17.3001 9.8584C19.1234 9.8584 20.5511 10.9814 20.5511 13.3936V17.7295Z" fill="#5A5A5A"/>
</svg>
