<svg width="20" height="25" viewBox="0 0 20 25" fill="none" xmlns="http://www.w3.org/2000/svg">
<path d="M17.0785 3.05754C16.1508 2.08957 15.0492 1.32135 13.8364 0.796741C12.6236 0.272129 11.3235 0.00139784 10.0103 5.40598e-06C7.35811 -0.00280674 4.81347 1.09163 2.93617 3.04254C1.05888 4.99345 0.00270572 7.64104 5.1914e-06 10.4029C-0.00269533 13.1647 1.0483 15.8145 2.92177 17.7694L9.28547 24.6795C9.3788 24.7808 9.49085 24.8614 9.61487 24.9165C9.7389 24.9716 9.87234 25 10.0072 25C10.142 25 10.2754 24.9716 10.3995 24.9165C10.5235 24.8614 10.6355 24.7808 10.7289 24.6795L17.0789 17.7847C18.9516 15.8302 20.0033 13.182 20.0032 10.421C20.0031 7.66007 18.9513 5.01189 17.0785 3.05754ZM15.6498 16.3275L10.0072 22.4545L4.35047 16.3122C3.23107 15.1464 2.46898 13.661 2.16067 12.044C1.85235 10.4271 2.01169 8.75117 2.61849 7.22852C3.2253 5.70588 4.25229 4.40494 5.56947 3.4904C6.88665 2.57587 8.43478 2.08884 10.0179 2.09099C11.601 2.09313 13.1479 2.58435 14.4628 3.50245C15.7777 4.42056 16.8014 5.72427 17.4044 7.24856C18.0074 8.77284 18.1626 10.4492 17.8502 12.0653C17.5379 13.6815 16.7721 15.1648 15.6498 16.3275Z" fill="white"/>
<path d="M10.0073 5.21436C9.01842 5.21436 8.05172 5.51972 7.22948 6.09184C6.40723 6.66395 5.76637 7.47712 5.38793 8.42852C5.00949 9.37991 4.91047 10.4268 5.1034 11.4368C5.29633 12.4468 5.77253 13.3745 6.47179 14.1027C7.17106 14.8309 8.06197 15.3268 9.03188 15.5277C10.0018 15.7286 11.0071 15.6254 11.9207 15.2314C12.8344 14.8373 13.6153 14.1699 14.1647 13.3137C14.7141 12.4575 15.0073 11.4508 15.0073 10.421C15.0058 9.04063 14.4785 7.71724 13.5411 6.74115C12.6038 5.76506 11.3329 5.21598 10.0073 5.21436ZM10.0073 13.545C9.41398 13.545 8.83396 13.3618 8.34062 13.0185C7.84727 12.6753 7.46275 12.1874 7.23569 11.6165C7.00862 11.0457 6.94921 10.4176 7.06497 9.81156C7.18073 9.20557 7.46645 8.64892 7.88601 8.21202C8.30556 7.77512 8.84011 7.47759 9.42206 7.35705C10.004 7.23651 10.6072 7.29838 11.1554 7.53482C11.7036 7.77127 12.1721 8.17168 12.5017 8.68542C12.8314 9.19916 13.0073 9.80316 13.0073 10.421C13.0065 11.2493 12.6901 12.0434 12.1277 12.629C11.5653 13.2147 10.8027 13.5441 10.0073 13.545Z" fill="white"/>
</svg>
