<svg width="20" height="25" viewBox="0 0 20 25" fill="none" xmlns="http://www.w3.org/2000/svg">
<path d="M17.0785 3.05754C16.1508 2.08957 15.0492 1.32135 13.8364 0.796741C12.6236 0.272129 11.3235 0.00139784 10.0103 5.40598e-06C7.35811 -0.00280674 4.81347 1.09163 2.93617 3.04254C1.05888 4.99345 0.00270572 7.64104 5.1914e-06 10.4029C-0.00269533 13.1647 1.0483 15.8145 2.92177 17.7694L9.28547 24.6795C9.3788 24.7808 9.49085 24.8614 9.61487 24.9165C9.7389 24.9716 9.87234 25 10.0072 25C10.142 25 10.2754 24.9716 10.3995 24.9165C10.5235 24.8614 10.6355 24.7808 10.7289 24.6795L17.0789 17.7847C18.9516 15.8302 20.0033 13.182 20.0032 10.421C20.0031 7.66007 18.9513 5.01189 17.0785 3.05754ZM15.6498 16.3275L10.0072 22.4545L4.35047 16.3122C3.23107 15.1464 2.46898 13.661 2.16067 12.044C1.85235 10.4271 2.01169 8.75117 2.61849 7.22852C3.2253 5.70588 4.25229 4.40494 5.56947 3.4904C6.88665 2.57587 8.43478 2.08884 10.0179 2.09099C11.601 2.09313 13.1479 2.58435 14.4628 3.50245C15.7777 4.42056 16.8014 5.72427 17.4044 7.24856C18.0074 8.77284 18.1626 10.4492 17.8502 12.0653C17.5379 13.6815 16.7721 15.1648 15.6498 16.3275Z" fill="white"/>
<path d="M10.0072 5.21448C9.0183 5.21448 8.0516 5.51984 7.22935 6.09196C6.40711 6.66408 5.76624 7.47725 5.38781 8.42864C5.00937 9.38004 4.91035 10.4269 5.10328 11.4369C5.2962 12.4469 5.77241 13.3747 6.47167 14.1028C7.17093 14.831 8.06185 15.3269 9.03175 15.5278C10.0017 15.7287 11.007 15.6256 11.9206 15.2315C12.8343 14.8374 13.6151 14.1701 14.1646 13.3138C14.714 12.4576 15.0072 11.4509 15.0072 10.4211C15.0056 9.04075 14.4784 7.71736 13.541 6.74127C12.6037 5.76518 11.3328 5.2161 10.0072 5.21448ZM10.0072 13.5451C9.41386 13.5451 8.83384 13.3619 8.34049 13.0187C7.84715 12.6754 7.46263 12.1875 7.23557 11.6167C7.0085 11.0458 6.94909 10.4177 7.06485 9.81169C7.1806 9.20569 7.46633 8.64904 7.88588 8.21214C8.30544 7.77525 8.83999 7.47771 9.42193 7.35717C10.0039 7.23663 10.6071 7.2985 11.1553 7.53495C11.7034 7.77139 12.172 8.17181 12.5016 8.68554C12.8313 9.19928 13.0072 9.80328 13.0072 10.4211C13.0063 11.2494 12.69 12.0435 12.1276 12.6291C11.5651 13.2148 10.8026 13.5442 10.0072 13.5451Z" fill="white"/>
</svg>
