<svg width="27" height="27" viewBox="0 0 27 27" fill="none" xmlns="http://www.w3.org/2000/svg">
<path d="M4.75 17.6667C2.43579 18.549 1 19.7785 1 21.1385C1 23.8235 6.59644 26 13.5 26C20.4036 26 26 23.8235 26 21.1385C26 19.7785 24.5642 18.549 22.25 17.6667M13.5 9.33333H13.5139M21.8333 9.33333C21.8333 14.9774 15.5833 17.6667 13.5 21.8333C11.4167 17.6667 5.16667 14.9774 5.16667 9.33333C5.16667 4.73096 8.89762 1 13.5 1C18.1024 1 21.8333 4.73096 21.8333 9.33333ZM14.8889 9.33333C14.8889 10.1004 14.2671 10.7222 13.5 10.7222C12.7329 10.7222 12.1111 10.1004 12.1111 9.33333C12.1111 8.56628 12.7329 7.94444 13.5 7.94444C14.2671 7.94444 14.8889 8.56628 14.8889 9.33333Z" stroke="#686868" stroke-width="2" stroke-linecap="round" stroke-linejoin="round"/>
</svg>
