<svg width="22" height="17" viewBox="0 0 22 17" fill="none" xmlns="http://www.w3.org/2000/svg">
<path d="M21 0H1C0.734784 0 0.48043 0.105357 0.292893 0.292893C0.105357 0.48043 0 0.734784 0 1V16C0 16.2652 0.105357 16.5196 0.292893 16.7071C0.48043 16.8946 0.734784 17 1 17H21C21.2652 17 21.5196 16.8946 21.7071 16.7071C21.8946 16.5196 22 16.2652 22 16V1C22 0.734784 21.8946 0.48043 21.7071 0.292893C21.5196 0.105357 21.2652 0 21 0ZM20 15H2V2H20V15Z" fill="#686868"/>
<path d="M3.50387 5.86824L10.5039 9.86824C10.655 9.95457 10.826 9.99997 11 9.99997C11.174 9.99997 11.345 9.95457 11.4961 9.86824L18.4961 5.86824C18.7233 5.73514 18.8889 5.51777 18.9569 5.26331C19.0248 5.00886 18.9896 4.73787 18.859 4.5092C18.7283 4.28052 18.5127 4.11263 18.259 4.04198C18.0053 3.97133 17.7339 4.00362 17.5039 4.13184L11 7.84864L4.49607 4.13184C4.38198 4.06502 4.25577 4.02149 4.12474 4.00377C3.99372 3.98605 3.86048 3.99449 3.73274 4.0286C3.60499 4.06271 3.48528 4.12182 3.38053 4.2025C3.27578 4.28317 3.18807 4.38382 3.12247 4.49862C3.05688 4.61342 3.0147 4.74009 2.99837 4.8713C2.98205 5.0025 2.99191 5.13565 3.02738 5.26302C3.06285 5.39039 3.12322 5.50946 3.20501 5.61335C3.2868 5.71723 3.38838 5.80387 3.50387 5.86824Z" fill="#686868"/>
</svg>
