<svg width="22" height="17" viewBox="0 0 22 17" fill="none" xmlns="http://www.w3.org/2000/svg">
<path d="M21 0H1C0.734784 0 0.48043 0.105357 0.292893 0.292893C0.105357 0.48043 0 0.734784 0 1V16C0 16.2652 0.105357 16.5196 0.292893 16.7071C0.48043 16.8946 0.734784 17 1 17H21C21.2652 17 21.5196 16.8946 21.7071 16.7071C21.8946 16.5196 22 16.2652 22 16V1C22 0.734784 21.8946 0.48043 21.7071 0.292893C21.5196 0.105357 21.2652 0 21 0ZM20 15H2V2H20V15Z" fill="white"/>
<path d="M3.50387 5.86812L10.5039 9.86812C10.655 9.95444 10.826 9.99985 11 9.99985C11.174 9.99985 11.345 9.95444 11.4961 9.86812L18.4961 5.86812C18.7233 5.73502 18.8889 5.51764 18.9569 5.26319C19.0248 5.00873 18.9896 4.73775 18.859 4.50907C18.7283 4.2804 18.5127 4.11251 18.259 4.04186C18.0053 3.9712 17.7339 4.00349 17.5039 4.13172L11 7.84852L4.49607 4.13172C4.38198 4.0649 4.25577 4.02137 4.12474 4.00365C3.99372 3.98593 3.86048 3.99437 3.73274 4.02848C3.60499 4.06259 3.48528 4.1217 3.38053 4.20237C3.27578 4.28305 3.18807 4.3837 3.12247 4.4985C3.05688 4.6133 3.0147 4.73997 2.99837 4.87117C2.98205 5.00238 2.99191 5.13552 3.02738 5.2629C3.06285 5.39027 3.12322 5.50934 3.20501 5.61323C3.2868 5.71711 3.38838 5.80375 3.50387 5.86812Z" fill="white"/>
</svg>
