<svg width="20" height="16" viewBox="0 0 20 16" fill="none" xmlns="http://www.w3.org/2000/svg">
<g clip-path="url(#clip0_1138_1599)">
<path d="M19.0909 0H0.909091C0.667985 0 0.436755 0.0957791 0.266266 0.266266C0.0957791 0.436755 0 0.667985 0 0.909091V14.5455C0 14.7865 0.0957791 15.0178 0.266266 15.1883C0.436755 15.3587 0.667985 15.4545 0.909091 15.4545H19.0909C19.332 15.4545 19.5633 15.3587 19.7337 15.1883C19.9042 15.0178 20 14.7865 20 14.5455V0.909091C20 0.667985 19.9042 0.436755 19.7337 0.266266C19.5633 0.0957791 19.332 0 19.0909 0ZM18.1818 13.6364H1.81818V1.81818H18.1818V13.6364Z" fill="#E7FE55"/>
<path d="M3.18537 5.33452L9.54903 8.97089C9.6864 9.04936 9.84185 9.09064 10 9.09064C10.1582 9.09064 10.3137 9.04936 10.451 8.97089L16.8147 5.33452C17.0212 5.21352 17.1718 5.0159 17.2336 4.78458C17.2953 4.55326 17.2633 4.30691 17.1446 4.09902C17.0258 3.89114 16.8298 3.73851 16.5991 3.67429C16.3685 3.61005 16.1218 3.6394 15.9127 3.75598L10 7.13489L4.08737 3.75598C3.98365 3.69523 3.86892 3.65566 3.7498 3.63955C3.63069 3.62344 3.50956 3.63111 3.39343 3.66212C3.2773 3.69313 3.16847 3.74687 3.07324 3.8202C2.97802 3.89355 2.89828 3.98505 2.83864 4.08941C2.77902 4.19378 2.74067 4.30893 2.72582 4.4282C2.71099 4.54749 2.71995 4.66852 2.7522 4.78432C2.78444 4.90011 2.83932 5.00836 2.91368 5.1028C2.98803 5.19724 3.08038 5.276 3.18537 5.33452Z" fill="#E7FE55"/>
</g>
<defs>
<clipPath id="clip0_1138_1599">
<rect width="20" height="15.4545" fill="white"/>
</clipPath>
</defs>
</svg>
