<svg width="33" height="20" viewBox="0 0 33 20" fill="none" xmlns="http://www.w3.org/2000/svg">
<path d="M0 9.97952C0 10.4215 0.173851 10.8455 0.483311 11.158C0.79277 11.4706 1.21249 11.6462 1.65013 11.6462H27.3689L21.9352 17.1345C21.7776 17.2883 21.6518 17.4722 21.5654 17.6755C21.4789 17.8789 21.4334 18.0976 21.4315 18.3188C21.4296 18.5401 21.4713 18.7596 21.5543 18.9644C21.6372 19.1693 21.7598 19.3554 21.9147 19.5118C22.0696 19.6683 22.2539 19.7921 22.4567 19.8759C22.6595 19.9597 22.8768 20.0019 23.0959 19.9999C23.315 19.998 23.5315 19.952 23.7328 19.8647C23.9341 19.7773 24.1162 19.6504 24.2684 19.4912L32.5181 11.159C32.8267 10.8456 33 10.4216 33 9.97952C33 9.53748 32.8267 9.11342 32.5181 8.80002L24.2684 0.467854C23.9572 0.164257 23.5404 -0.00373436 23.1077 6.30041e-05C22.6751 0.00386037 22.2612 0.179142 21.9553 0.488156C21.6493 0.797169 21.4758 1.21519 21.472 1.65218C21.4683 2.08918 21.6346 2.51018 21.9352 2.82452L27.3689 8.31285H1.65013C1.21249 8.31285 0.79277 8.48845 0.483311 8.80101C0.173851 9.11357 0 9.53749 0 9.97952Z" fill="#E7FE55"/>
</svg>
