<svg width="21" height="21" viewBox="0 0 21 21" fill="none" xmlns="http://www.w3.org/2000/svg">
<path d="M18.6899 1.32599C17.8386 0.476854 16.6853 0 15.4829 0C14.2805 0 13.1271 0.476854 12.2758 1.32599L1.29293 12.3085C1.15225 12.4605 1.05568 12.6481 1.01363 12.8509L0.0136276 18.8509C-0.0125646 19.0079 -0.000888489 19.1689 0.0476847 19.3205C0.096258 19.4721 0.180324 19.61 0.292893 19.7225C0.405462 19.8351 0.54328 19.9192 0.694885 19.9677C0.84649 20.0163 1.0075 20.028 1.16453 20.0018L7.16453 19.0018C7.36736 18.9597 7.55488 18.8632 7.70693 18.7225L18.6899 7.74009C19.1115 7.31919 19.446 6.81929 19.6742 6.26899C19.9025 5.71868 20.0199 5.12878 20.0199 4.53304C20.0199 3.93729 19.9025 3.34739 19.6742 2.79709C19.446 2.24679 19.1115 1.74689 18.6899 1.32599ZM6.99993 16.6014L3.41403 13.0155L11.9823 4.44709L15.5683 8.03309L6.99993 16.6014ZM2.66673 15.0964L4.91903 17.3487L2.21623 17.7987L2.66673 15.0964ZM17.2753 6.32639L16.9823 6.61939L13.3964 3.03309L13.6894 2.74009C14.1649 2.26457 14.8099 1.99742 15.4824 1.99742C16.1549 1.99742 16.7998 2.26457 17.2753 2.74009C17.7508 3.21561 18.018 3.86055 18.018 4.53304C18.018 5.20552 17.7508 5.85087 17.2753 6.32639Z" fill="#E7FE55"/>
</svg>
