<svg width="19" height="19" viewBox="0 0 19 19" fill="none" xmlns="http://www.w3.org/2000/svg">
<path d="M17.7418 1.25872C16.9336 0.452663 15.8388 0 14.6974 0C13.556 0 12.4612 0.452663 11.6531 1.25872L1.22734 11.6841C1.09379 11.8284 1.00213 12.0064 0.962205 12.1989L0.0129363 17.8946C-0.0119271 18.0436 -0.000843415 18.1965 0.0452656 18.3404C0.0913747 18.4843 0.171176 18.6151 0.278034 18.722C0.384892 18.8288 0.515718 18.9086 0.659632 18.9547C0.803546 19.0008 0.956389 19.0119 1.10545 18.9871L6.80106 18.0378C6.9936 17.9979 7.17161 17.9062 7.31594 17.7727L17.7418 7.34742C18.142 6.94787 18.4595 6.47333 18.6761 5.95095C18.8928 5.42857 19.0043 4.86859 19.0043 4.30307C19.0043 3.73754 18.8928 3.17757 18.6761 2.65519C18.4595 2.1328 18.142 1.65826 17.7418 1.25872ZM6.64481 15.7592L3.24083 12.3552L11.3744 4.22148L14.7785 7.62556L6.64481 15.7592ZM2.53144 14.3305L4.66948 16.4686L2.10379 16.8957L2.53144 14.3305ZM16.3989 6.00544L16.1208 6.28357L12.7168 2.87921L12.9949 2.60108C13.4463 2.14968 14.0586 1.89609 14.6969 1.89609C15.3353 1.89609 15.9475 2.14968 16.3989 2.60108C16.8503 3.05247 17.1039 3.6647 17.1039 4.30307C17.1039 4.94144 16.8503 5.55404 16.3989 6.00544Z" fill="white"/>
</svg>
