<svg width="20" height="20" viewBox="0 0 20 20" fill="none" xmlns="http://www.w3.org/2000/svg">
<g clip-path="url(#clip0_1138_1590)">
<path d="M16.4706 19.2158C12.3529 18.9217 8.5294 17.255 5.58822 14.3139C2.74509 11.4707 1.07842 7.6472 0.784302 3.62759C0.784302 2.74524 1.07842 2.05897 1.66665 1.47073C2.15685 0.882497 2.94116 0.588379 3.72548 0.588379H7.64705C8.0392 0.588379 8.43136 0.784457 8.5294 1.17661L10.4902 6.07858C10.6863 6.56877 10.4902 7.05897 10.098 7.25505L8.43136 8.23544C9.21567 9.50995 10.3921 10.6864 11.6667 11.4707L12.647 9.80406C12.9412 9.41191 13.4314 9.21583 13.8235 9.41191L18.7255 11.3727C19.1176 11.5688 19.3137 11.8629 19.3137 12.255V16.1766C19.3137 16.9609 19.0196 17.7452 18.4314 18.2354C17.8431 18.7256 17.2549 19.2158 16.4706 19.2158ZM3.72548 2.54916C3.43136 2.54916 3.23528 2.6472 3.0392 2.84328C2.84313 3.03936 2.74509 3.23544 2.74509 3.52956C2.94116 7.05897 4.50979 10.3923 7.05881 12.9413C9.60783 15.4903 12.9412 16.9609 16.5686 17.255C16.7647 17.255 17.0588 17.157 17.1569 16.9609C17.2549 16.7649 17.451 16.5688 17.451 16.2747V13.0394L13.9216 11.6668L12.9412 13.3335C12.647 13.7256 12.1569 13.9217 11.6667 13.7256C9.31371 12.5492 7.45097 10.6864 6.2745 8.33348C6.07842 7.84328 6.17646 7.35309 6.66665 7.05897L8.43136 5.98054L6.96077 2.54916H3.72548Z" fill="#E7FE55"/>
</g>
<defs>
<clipPath id="clip0_1138_1590">
<rect width="20" height="20" fill="white"/>
</clipPath>
</defs>
</svg>
