<svg width="22" height="22" viewBox="0 0 22 22" fill="none" xmlns="http://www.w3.org/2000/svg">
<path d="M22 3C22 1.34315 20.6569 0 19 0H15C14.4477 0 14 0.44772 14 1C14 1.55228 14.4477 2 15 2H19C19.5523 2 20 2.44772 20 3V7C20 7.55228 20.4477 8 21 8C21.5523 8 22 7.55228 22 7V3Z" fill="white"/>
<path d="M22 15C22 14.4477 21.5523 14 21 14C20.4477 14 20 14.4477 20 15V19C20 19.5523 19.5523 20 19 20H15C14.4477 20 14 20.4477 14 21C14 21.5523 14.4477 22 15 22H19C20.6569 22 22 20.6569 22 19V15Z" fill="white"/>
<path d="M3 20C2.44772 20 2 19.5523 2 19V15C2 14.4477 1.55228 14 1 14C0.44772 14 0 14.4477 0 15V19C0 20.6569 1.34315 22 3 22H7C7.55228 22 8 21.5523 8 21C8 20.4477 7.55228 20 7 20H3Z" fill="white"/>
<path d="M0 7C0 7.55228 0.44772 8 1 8C1.55228 8 2 7.55228 2 7V3C2 2.44772 2.44772 2 3 2H7C7.55228 2 8 1.55228 8 1C8 0.44772 7.55228 0 7 0H3C1.34315 0 0 1.34315 0 3V7Z" fill="white"/>
<path fill-rule="evenodd" clip-rule="evenodd" d="M10 5C10 4.44772 9.5523 4 9 4H5C4.44772 4 4 4.44772 4 5V9C4 9.5523 4.44772 10 5 10H9C9.5523 10 10 9.5523 10 9V5ZM8 6.5C8 6.22386 7.77614 6 7.5 6H6.5C6.22386 6 6 6.22386 6 6.5V7.5C6 7.77614 6.22386 8 6.5 8H7.5C7.77614 8 8 7.77614 8 7.5V6.5Z" fill="white"/>
<path fill-rule="evenodd" clip-rule="evenodd" d="M17 12C17.5523 12 18 12.4477 18 13V17C18 17.5523 17.5523 18 17 18H13C12.4477 18 12 17.5523 12 17V13C12 12.4477 12.4477 12 13 12H17ZM14 14.5C14 14.2239 14.2239 14 14.5 14H15.5C15.7761 14 16 14.2239 16 14.5V15.5C16 15.7761 15.7761 16 15.5 16H14.5C14.2239 16 14 15.7761 14 15.5V14.5Z" fill="white"/>
<path d="M13 4C12.4477 4 12 4.44772 12 5C12 5.55229 12.4477 6 13 6H15.5C15.7761 6 16 6.22386 16 6.5V9C16 9.5523 16.4477 10 17 10C17.5523 10 18 9.5523 18 9V5C18 4.44772 17.5523 4 17 4H13Z" fill="white"/>
<path d="M13 7C12.4477 7 12 7.44771 12 8V9C12 9.5523 12.4477 10 13 10C13.5523 10 14 9.5523 14 9V8C14 7.44772 13.5523 7 13 7Z" fill="white"/>
<path d="M5 12C4.44772 12 4 12.4477 4 13V15C4 15.5523 4.44772 16 5 16C5.55229 16 6 15.5523 6 15V14.5C6 14.2239 6.22386 14 6.5 14H9C9.5523 14 10 13.5523 10 13C10 12.4477 9.5523 12 9 12H5Z" fill="white"/>
<path d="M9 16C8.44771 16 8 16.4477 8 17C8 17.5523 8.44771 18 9 18C9.5523 18 10 17.5523 10 17C10 16.4477 9.5523 16 9 16Z" fill="white"/>
</svg>
