<svg width="124" height="42" viewBox="0 0 124 42" fill="none" xmlns="http://www.w3.org/2000/svg">
<rect width="42" height="42" rx="21" fill="#E7FE55"/>
<path d="M16.4491 28.1233C16.4491 30.6064 14.4361 32.6193 11.953 32.6193C9.46992 32.6193 7.45697 30.6064 7.45697 28.1233C7.45697 25.6401 9.46992 23.6272 11.953 23.6272C14.4361 23.6272 16.4491 25.6401 16.4491 28.1233Z" fill="#0F1511"/>
<path d="M34.5416 14.0393C34.5416 16.5224 32.5287 18.5353 30.0456 18.5353C27.5625 18.5353 25.5495 16.5224 25.5495 14.0393C25.5495 11.5562 27.5625 9.54321 30.0456 9.54321C32.5287 9.54321 34.5416 11.5562 34.5416 14.0393Z" fill="#0F1511"/>
<path d="M7.43671 11.4838C11.0832 8.45517 16.4945 8.9561 19.5231 12.6026L34.4011 30.5162C30.7546 33.5448 25.3433 33.0439 22.3147 29.3974L7.43671 11.4838Z" fill="#0F1511"/>
<path d="M73.0155 32L68.6955 25.76H68.4395H63.9275V32H58.7435V9.6H68.4395C70.4235 9.6 72.1408 9.93067 73.5915 10.592C75.0635 11.2533 76.1942 12.192 76.9835 13.408C77.7728 14.624 78.1675 16.064 78.1675 17.728C78.1675 19.392 77.7622 20.832 76.9515 22.048C76.1622 23.2427 75.0315 24.16 73.5595 24.8L78.5835 32H73.0155ZM72.9195 17.728C72.9195 16.4693 72.5142 15.5093 71.7035 14.848C70.8928 14.1653 69.7088 13.824 68.1515 13.824H63.9275V21.632H68.1515C69.7088 21.632 70.8928 21.2907 71.7035 20.608C72.5142 19.9253 72.9195 18.9653 72.9195 17.728ZM97.1868 23.456C97.1868 23.52 97.1548 23.968 97.0908 24.8H84.0668C84.3014 25.8667 84.8561 26.7093 85.7308 27.328C86.6054 27.9467 87.6934 28.256 88.9948 28.256C89.8908 28.256 90.6801 28.128 91.3628 27.872C92.0668 27.5947 92.7174 27.168 93.3148 26.592L95.9708 29.472C94.3494 31.328 91.9814 32.256 88.8668 32.256C86.9254 32.256 85.2081 31.8827 83.7148 31.136C82.2214 30.368 81.0694 29.312 80.2588 27.968C79.4481 26.624 79.0428 25.0987 79.0428 23.392C79.0428 21.7067 79.4374 20.192 80.2268 18.848C81.0374 17.4827 82.1361 16.4267 83.5228 15.68C84.9308 14.912 86.4988 14.528 88.2268 14.528C89.9121 14.528 91.4374 14.8907 92.8028 15.616C94.1681 16.3413 95.2348 17.3867 96.0028 18.752C96.7921 20.096 97.1868 21.664 97.1868 23.456ZM88.2588 18.304C87.1281 18.304 86.1788 18.624 85.4108 19.264C84.6428 19.904 84.1734 20.7787 84.0028 21.888H92.4828C92.3121 20.8 91.8428 19.936 91.0748 19.296C90.3068 18.6347 89.3681 18.304 88.2588 18.304ZM105.386 14.528C108.052 14.528 110.1 15.168 111.53 16.448C112.959 17.7067 113.674 19.616 113.674 22.176V32H109.002V29.856C108.063 31.456 106.314 32.256 103.754 32.256C102.431 32.256 101.279 32.032 100.298 31.584C99.3375 31.136 98.6015 30.5173 98.0895 29.728C97.5775 28.9387 97.3215 28.0427 97.3215 27.04C97.3215 25.44 97.9188 24.1813 99.1135 23.264C100.33 22.3467 102.196 21.888 104.714 21.888H108.682C108.682 20.8 108.351 19.968 107.69 19.392C107.028 18.7947 106.036 18.496 104.714 18.496C103.796 18.496 102.89 18.6453 101.994 18.944C101.119 19.2213 100.372 19.6053 99.7535 20.096L97.9615 16.608C98.9002 15.9467 100.02 15.4347 101.322 15.072C102.644 14.7093 103.999 14.528 105.386 14.528ZM105.002 28.896C105.855 28.896 106.612 28.704 107.274 28.32C107.935 27.9147 108.404 27.328 108.682 26.56V24.8H105.258C103.21 24.8 102.186 25.472 102.186 26.816C102.186 27.456 102.431 27.968 102.922 28.352C103.434 28.7147 104.127 28.896 105.002 28.896ZM116.592 8.256H121.584V32H116.592V8.256Z" fill="white"/>
</svg>
