<svg width="21" height="21" viewBox="0 0 21 21" fill="none" xmlns="http://www.w3.org/2000/svg">
<path d="M14.2999 8.60005C15.3492 8.60005 16.1999 7.74939 16.1999 6.70005C16.1999 5.65071 15.3492 4.80005 14.2999 4.80005C13.2506 4.80005 12.3999 5.65071 12.3999 6.70005C12.3999 7.74939 13.2506 8.60005 14.2999 8.60005Z" stroke="white" stroke-width="2"/>
<path d="M1 10.9751L2.66401 9.51911C3.52972 8.76167 4.83447 8.80509 5.64787 9.61848L9.72309 13.6937C10.3759 14.3466 11.4036 14.4356 12.1591 13.9047L12.4424 13.7057C13.5294 12.9417 15.0001 13.0302 15.9877 13.919L19.05 16.6751" stroke="white" stroke-width="2" stroke-linecap="round"/>
<path d="M20 10.5C20 14.9783 20 17.2175 18.6087 18.6087C17.2175 20 14.9783 20 10.5 20C6.02165 20 3.78248 20 2.39125 18.6087C1 17.2175 1 14.9783 1 10.5C1 6.02165 1 3.78248 2.39125 2.39125C3.78248 1 6.02165 1 10.5 1C14.9783 1 17.2175 1 18.6087 2.39125C19.5338 3.3163 19.8438 4.61622 19.9477 6.7" stroke="white" stroke-width="2" stroke-linecap="round"/>
</svg>
