<svg width="21" height="20" viewBox="0 0 21 20" fill="none" xmlns="http://www.w3.org/2000/svg">
<path d="M10.5001 13.3501C12.0742 13.3501 13.3501 12.0742 13.3501 10.5001C13.3501 8.92613 12.0742 7.65015 10.5001 7.65015C8.92613 7.65015 7.65015 8.92613 7.65015 10.5001C7.65015 12.0742 8.92613 13.3501 10.5001 13.3501Z" stroke="white" stroke-width="2"/>
<path d="M8.38889 18.1H12.6111C15.5761 18.1 17.0586 18.1 18.1236 17.4014C18.5845 17.0989 18.9804 16.7102 19.2884 16.2577C20 15.2121 20 13.7565 20 10.8454C20 7.93443 20 6.47885 19.2884 5.43327C18.9804 4.98063 18.5845 4.59199 18.1236 4.28955C17.4392 3.84062 16.5826 3.68017 15.2709 3.62282C14.6449 3.62282 14.1061 3.15715 13.9834 2.55454C13.7992 1.65065 12.9908 1 12.052 1H8.94798C8.00915 1 7.20079 1.65065 7.01666 2.55454C6.89391 3.15715 6.35501 3.62282 5.7291 3.62282C4.41746 3.68017 3.56077 3.84062 2.87648 4.28955C2.41545 4.59199 2.01962 4.98063 1.71157 5.43327C1 6.47885 1 7.93443 1 10.8454C1 13.7565 1 15.2121 1.71157 16.2577C2.01962 16.7102 2.41545 17.0989 2.87648 17.4014C3.94143 18.1 5.42391 18.1 8.38889 18.1Z" stroke="white" stroke-width="2"/>
<path d="M17.15 7.65015H16.2" stroke="white" stroke-width="2" stroke-linecap="round"/>
</svg>
