<svg width="21" height="21" viewBox="0 0 21 21" fill="none" xmlns="http://www.w3.org/2000/svg">
<path d="M7.33333 12.0833L13.6667 15.25M13.6667 5.75L7.33333 8.91667M16.8333 20C15.0844 20 13.6667 18.5823 13.6667 16.8333C13.6667 15.0844 15.0844 13.6667 16.8333 13.6667C18.5823 13.6667 20 15.0844 20 16.8333C20 18.5823 18.5823 20 16.8333 20ZM4.16667 13.6667C2.41777 13.6667 1 12.249 1 10.5C1 8.75105 2.41777 7.33333 4.16667 7.33333C5.91556 7.33333 7.33333 8.75105 7.33333 10.5C7.33333 12.249 5.91556 13.6667 4.16667 13.6667ZM16.8333 7.33333C15.0844 7.33333 13.6667 5.91556 13.6667 4.16667C13.6667 2.41777 15.0844 1 16.8333 1C18.5823 1 20 2.41777 20 4.16667C20 5.91556 18.5823 7.33333 16.8333 7.33333Z" stroke="white" stroke-width="2" stroke-linecap="round" stroke-linejoin="round"/>
</svg>
