<svg width="28" height="25" viewBox="0 0 28 25" fill="none" xmlns="http://www.w3.org/2000/svg">
<path fill-rule="evenodd" clip-rule="evenodd" d="M10.8192 21.4537C11.0705 21.9017 11.3222 22.3053 11.5628 22.6629C9.00651 22.1164 6.78834 20.7204 5.25343 18.8032C6.26644 18.2608 7.5639 17.6986 9.12369 17.2872C9.56701 18.9403 10.1924 20.3365 10.8192 21.4537ZM12.7527 20.4733C12.2082 19.5029 11.6626 18.291 11.2695 16.855C12.1158 16.7356 13.0192 16.6667 13.9774 16.6667C14.9354 16.6667 15.8388 16.7356 16.6849 16.8549C16.2918 18.291 15.7462 19.5029 15.2017 20.4733C14.7652 21.2515 14.3303 21.8728 13.9772 22.3274C13.6241 21.8728 13.1892 21.2515 12.7527 20.4733ZM10.6902 12.5C10.6902 13.3112 10.7477 14.0812 10.8489 14.8082C11.8252 14.6658 12.869 14.5833 13.9774 14.5833C15.0856 14.5833 16.1294 14.6657 17.1055 14.8082C17.2068 14.0811 17.2642 13.3112 17.2642 12.5C17.2642 11.6887 17.2068 10.9189 17.1055 10.1918C16.1294 10.3342 15.0856 10.4167 13.9774 10.4167C12.869 10.4167 11.8252 10.3342 10.8489 10.1918C10.7477 10.9187 10.6902 11.6887 10.6902 12.5ZM8.6989 9.76222C8.57164 10.6219 8.49893 11.5353 8.49893 12.5C8.49893 13.4647 8.57164 14.3781 8.6989 15.2378C6.83848 15.7126 5.2979 16.3822 4.10644 17.0265C3.41068 15.6578 3.02066 14.1222 3.02066 12.5C3.02066 10.8778 3.41068 9.34228 4.10642 7.97344C5.29775 8.61767 6.83836 9.2873 8.6989 9.76222ZM11.2695 8.14507C12.1158 8.26447 13.0192 8.33333 13.9774 8.33333C14.9354 8.33333 15.8388 8.26449 16.6849 8.1451C16.2918 6.7091 15.7462 5.49713 15.2017 4.52667C14.7652 3.74853 14.3303 3.12717 13.9772 2.67267C13.6241 3.12717 13.1892 3.74853 12.7527 4.52664C12.2082 5.4971 11.6626 6.70907 11.2695 8.14507ZM19.2555 9.76236C19.3827 10.6221 19.4555 11.5354 19.4555 12.5C19.4555 13.4647 19.3827 14.3779 19.2555 15.2376C21.1159 15.7126 22.6566 16.3822 23.848 17.0265C24.5437 15.6576 24.9338 14.1221 24.9338 12.5C24.9338 10.8779 24.5437 9.34232 23.848 7.97351C22.6567 8.61773 21.1161 9.28736 19.2555 9.76236ZM22.701 6.19692C21.6879 6.73932 20.3904 7.30146 18.8308 7.71289C18.3874 6.05978 17.762 4.66346 17.1353 3.54628C16.8839 3.09829 16.6322 2.69479 16.3916 2.33708C18.948 2.88365 21.1662 4.27967 22.701 6.19692ZM9.12368 7.71285C7.56399 7.3014 6.26657 6.73926 5.25344 6.19685C6.78834 4.27964 9.00652 2.88365 11.5627 2.33708C11.3222 2.69479 11.0705 3.09828 10.8191 3.54625C10.1924 4.66343 9.56701 6.05974 9.12368 7.71285ZM18.8308 17.2871C18.3874 18.9403 17.762 20.3365 17.1353 21.4537C16.8839 21.9017 16.6322 22.3053 16.3916 22.6629C18.948 22.1164 21.1662 20.7203 22.7011 18.8031C21.688 18.2607 20.3906 17.6986 18.8308 17.2871ZM13.9772 25C21.2386 25 27.1251 19.4036 27.1251 12.5C27.1251 5.59644 21.2386 0 13.9772 0C6.71585 0 0.829346 5.59644 0.829346 12.5C0.829346 19.4036 6.71585 25 13.9772 25Z" fill="#5A5A5A"/>
</svg>
