<svg width="24" height="19" viewBox="0 0 24 19" fill="none" xmlns="http://www.w3.org/2000/svg">
                            <path d="M5.98771 2.34428e-07C6.25293 2.3759e-07 6.50728 0.100096 6.69482 0.27827C6.88235 0.456443 6.98771 0.698099 6.98771 0.950074L6.98771 15.7578L10.2807 12.6293C10.373 12.5386 10.4833 12.4662 10.6053 12.4164C10.7273 12.3666 10.8585 12.3404 10.9913 12.3393C11.1241 12.3382 11.2558 12.3623 11.3787 12.41C11.5016 12.4578 11.6132 12.5284 11.7071 12.6176C11.801 12.7068 11.8753 12.8128 11.9255 12.9296C11.9758 13.0464 12.0011 13.1715 12 13.2976C11.9988 13.4238 11.9712 13.5484 11.9188 13.6643C11.8664 13.7803 11.7902 13.8851 11.6947 13.9727L6.69541 18.7225C6.50737 18.9002 6.25294 19 5.98771 19C5.72249 19 5.46805 18.9002 5.28001 18.7225L0.280712 13.9727C0.0985542 13.7936 -0.00224055 13.5536 3.78704e-05 13.3045C0.00231629 13.0553 0.107485 12.8171 0.292894 12.6409C0.478302 12.4648 0.729114 12.3648 0.991311 12.3627C1.25351 12.3605 1.50611 12.4563 1.69471 12.6293L4.98771 15.7578L4.98771 0.950074C4.98771 0.698099 5.09307 0.456443 5.28061 0.27827C5.46814 0.100096 5.7225 2.31265e-07 5.98771 2.34428e-07Z" fill="white"/>
                            <path d="M18.5113 19C18.2681 19 18.035 18.8999 17.8631 18.7217C17.6912 18.5436 17.5946 18.3019 17.5946 18.0499L17.5946 3.24217L14.576 6.37067C14.4915 6.46141 14.3903 6.53379 14.2785 6.58358C14.1666 6.63337 14.0463 6.65958 13.9246 6.66068C13.8029 6.66177 13.6822 6.63773 13.5696 6.58996C13.4569 6.54219 13.3546 6.47165 13.2685 6.38244C13.1824 6.29324 13.1144 6.18716 13.0683 6.0704C13.0222 5.95364 12.999 5.82853 13 5.70238C13.0011 5.57623 13.0264 5.45156 13.0744 5.33565C13.1225 5.21974 13.1923 5.1149 13.2798 5.02726L17.8625 0.277461C18.0349 0.0997554 18.2681 6.83517e-08 18.5113 6.54525e-08C18.7544 6.25533e-08 18.9876 0.0997554 19.16 0.277461L23.7427 5.02726C23.9097 5.20645 24.0021 5.44644 24 5.69554C23.9979 5.94465 23.9015 6.18294 23.7315 6.35909C23.5616 6.53524 23.3316 6.63516 23.0913 6.63733C22.851 6.63949 22.6194 6.54373 22.4465 6.37067L19.4279 3.24217L19.4279 18.0499C19.4279 18.3019 19.3314 18.5436 19.1594 18.7217C18.9875 18.8999 18.7544 19 18.5113 19Z" fill="white"/>
                        </svg>