<svg width="22" height="22" viewBox="0 0 22 22" fill="none" xmlns="http://www.w3.org/2000/svg">
<path d="M10.1737 2.03C10.4355 1.44287 10.5664 1.14931 10.7487 1.05891C10.9071 0.980364 11.093 0.980364 11.2513 1.05891C11.4336 1.14931 11.5646 1.44287 11.8264 2.03L13.9117 6.70657C13.9892 6.88013 14.0279 6.96692 14.0878 7.03338C14.1407 7.09218 14.2055 7.13922 14.2778 7.17141C14.3596 7.20782 14.4541 7.21779 14.6432 7.23773L19.7371 7.77515C20.3766 7.84262 20.6963 7.87635 20.8387 8.02171C20.9623 8.14797 21.0197 8.32477 20.9939 8.49958C20.9643 8.7008 20.7255 8.91593 20.2478 9.34629L16.4427 12.774C16.3015 12.9012 16.2308 12.9648 16.1862 13.0423C16.1466 13.1109 16.1218 13.187 16.1136 13.2656C16.1042 13.3546 16.1239 13.4475 16.1633 13.6335L17.2261 18.6421C17.3596 19.271 17.4263 19.5854 17.332 19.7656C17.25 19.9223 17.0996 20.0315 16.9253 20.061C16.7247 20.0949 16.4462 19.9344 15.8891 19.6132L11.452 17.055C11.2874 16.96 11.205 16.9127 11.1175 16.894C11.04 16.8776 10.96 16.8776 10.8825 16.894C10.795 16.9127 10.7127 16.96 10.548 17.055L6.11095 19.6132C5.5539 19.9344 5.27537 20.0949 5.07474 20.061C4.90046 20.0315 4.75 19.9223 4.66808 19.7656C4.57378 19.5854 4.64049 19.271 4.77392 18.6421L5.83669 13.6335C5.87614 13.4475 5.89586 13.3546 5.88649 13.2656C5.8782 13.187 5.85347 13.1109 5.81389 13.0423C5.76916 12.9648 5.69855 12.9012 5.55734 12.774L1.75231 9.34629C1.27461 8.91593 1.03575 8.7008 1.00605 8.49958C0.98027 8.32477 1.03773 8.14797 1.16138 8.02171C1.30374 7.87635 1.6235 7.84262 2.26302 7.77515L7.35689 7.23773C7.54596 7.21779 7.64048 7.20782 7.72222 7.17141C7.79454 7.13922 7.85929 7.09218 7.91229 7.03338C7.97217 6.96692 8.01087 6.88013 8.08828 6.70657L10.1737 2.03Z" stroke="#E7FE55" stroke-width="2" stroke-linecap="round" stroke-linejoin="round"/>
</svg>
