<svg width="20" height="20" viewBox="0 0 20 20" fill="none" xmlns="http://www.w3.org/2000/svg">
<path d="M19.2427 13.03L15.2427 12.03C15.0426 11.9802 14.832 11.9934 14.6396 12.0678C14.4473 12.1422 14.2826 12.2741 14.168 12.4455L11.608 16.2855C8.16719 14.6126 5.38761 11.833 3.7147 8.3922L7.5547 5.8322C7.72635 5.71775 7.85839 5.55302 7.93274 5.36058C8.00709 5.16815 8.02011 4.95742 7.97 4.7573L6.97 0.7573C6.91589 0.540998 6.79103 0.348985 6.61528 0.211774C6.43953 0.074562 6.22297 2.26074e-05 6 0H1C0.734784 0 0.48043 0.105357 0.292893 0.292893C0.105357 0.48043 0 0.734784 0 1C0.00608667 6.03724 2.00982 10.8664 5.57169 14.4283C9.13357 17.9902 13.9628 19.9939 19 20C19.2652 20 19.5196 19.8946 19.7071 19.7071C19.8946 19.5196 20 19.2652 20 19V14C20 13.777 19.9254 13.5605 19.7882 13.3847C19.651 13.209 19.459 13.0841 19.2427 13.03ZM5.8589 4.5591L2.9338 6.5091C2.41356 5.05925 2.11582 3.53899 2.0507 2H5.2192L5.8589 4.5591ZM15.4409 14.1411L18 14.7811V17.9496C16.4608 17.8878 14.9401 17.59 13.4913 17.0665L15.4409 14.1411Z" fill="white"/>
</svg>
