<svg width="20" height="25" viewBox="0 0 20 25" fill="none" xmlns="http://www.w3.org/2000/svg">
<path d="M19.9049 9.49471C19.8179 9.27328 19.6756 9.08504 19.4953 8.95285C19.315 8.82067 19.1044 8.75024 18.8892 8.75011H13.3337V1.25033C13.3337 0.998002 13.2659 0.75156 13.1391 0.543411C13.0123 0.335263 12.8325 0.175154 12.6233 0.0841417C12.4141 -0.0068709 12.1853 -0.0245264 11.967 0.0334974C11.7487 0.0915212 11.5512 0.222507 11.4003 0.40923L0.289186 14.1588C0.144304 14.338 0.0488176 14.5607 0.0143391 14.7998C-0.0201393 15.0389 0.00787511 15.2841 0.0949759 15.5056C0.182077 15.7271 0.324511 15.9154 0.50496 16.0475C0.685409 16.1796 0.896099 16.25 1.11141 16.2499H6.66697V23.7497C6.66691 24.002 6.73473 24.2484 6.86151 24.4566C6.9883 24.6647 7.16812 24.8248 7.37732 24.9159C7.58652 25.0069 7.8153 25.0245 8.03359 24.9665C8.25188 24.9085 8.44945 24.7775 8.60031 24.5908L19.712 10.8412C19.8565 10.6618 19.9516 10.4391 19.9858 10.2001C20.0201 9.96111 19.9919 9.71609 19.9049 9.49471ZM8.8892 20.5161V14.9999C8.8892 14.6684 8.77214 14.3505 8.56376 14.1161C8.35539 13.8817 8.07277 13.75 7.77809 13.75H3.6233L11.1114 4.48386V10.0001C11.1114 10.3316 11.2285 10.6495 11.4369 10.8839C11.6452 11.1183 11.9279 11.25 12.2225 11.25H16.3773L8.8892 20.5161Z" fill="white"/>
</svg>
