<svg width="24" height="25" viewBox="0 0 24 25" fill="none" xmlns="http://www.w3.org/2000/svg">
<path d="M12.9344 0.0208431C14.3699 7.82311e-08 15.7949 0.0108384 17.2191 0C17.2664 1.69329 17.989 3.21734 19.1387 4.3462L19.1369 4.34453C20.3743 5.40419 21.9843 6.09118 23.7593 6.2079L23.7838 6.20956V10.4082C22.1071 10.3682 20.5304 10.0005 19.1089 9.36854L19.1808 9.39688C18.4933 9.08257 17.9119 8.75992 17.3594 8.39975L17.405 8.4281C17.3945 11.4704 17.4155 14.5126 17.3831 17.544C17.2927 19.0889 16.7526 20.4979 15.8861 21.6743L15.9037 21.6484C14.455 23.621 12.1083 24.9158 9.43981 24.9925H9.42753C9.31967 24.9975 9.19252 25 9.06448 25C7.54739 25 6.12939 24.5981 4.92097 23.9003L4.95605 23.9195C2.7567 22.6614 1.23961 20.5087 0.958987 18.0051L0.955479 17.9709C0.933556 17.4498 0.923032 16.9287 0.944956 16.4185C1.37465 12.4341 4.8859 9.35186 9.15393 9.35186C9.63361 9.35186 10.1036 9.39105 10.5605 9.46525L10.5114 9.45858C10.5333 11.0001 10.4676 12.5425 10.4676 14.0841C10.0966 13.9565 9.66869 13.8823 9.22233 13.8823C7.58422 13.8823 6.19077 14.8778 5.67514 16.2676L5.66724 16.2926C5.55061 16.6486 5.48309 17.058 5.48309 17.4815C5.48309 17.6532 5.49449 17.8233 5.51553 17.9901L5.51378 17.9701C5.80492 19.6758 7.34306 20.9631 9.19778 20.9631C9.25127 20.9631 9.30389 20.9623 9.3565 20.9598H9.34861C10.6316 20.9231 11.7453 20.267 12.3749 19.2973L12.3837 19.2823C12.6178 18.9722 12.7783 18.597 12.8318 18.1893L12.8327 18.1776C12.9423 16.3126 12.8984 14.4584 12.909 12.5934C12.9195 8.39475 12.8984 4.20613 12.9309 0.018342L12.9344 0.0208431Z" fill="#686868"/>
</svg>
