<svg width="17" height="19" viewBox="0 0 17 19" fill="none" xmlns="http://www.w3.org/2000/svg">
<path fill-rule="evenodd" clip-rule="evenodd" d="M6.62134 0.0987699C6.31028 0.25172 6.1573 0.529151 6.12455 0.842938C6.11045 0.994731 6.08926 1.14544 6.06047 1.29554C5.99935 1.61415 5.88355 2.06437 5.66656 2.57351C5.23373 3.58914 4.40603 4.82465 2.80867 5.74259C0.557567 7.0362 -0.277435 9.94287 0.0793842 12.5449C0.443672 15.2016 2.09364 17.9551 5.35815 18.9556C5.68343 19.0554 6.04194 18.9842 6.2935 18.77C6.60133 18.5079 6.61702 18.1606 6.53878 17.81C6.48138 17.5526 6.3598 16.9084 6.3598 16.1387C6.3598 15.8897 6.37232 15.6342 6.40126 15.378C6.90298 16.4354 7.58312 17.2066 8.26288 17.7581C9.27407 18.5786 10.2296 18.8768 10.5141 18.9539C10.73 19.0124 10.9594 19.016 11.1708 18.9382C13.6669 18.0201 15.2383 16.7742 16.1162 15.3498C16.9921 13.9286 17.1155 12.43 16.9195 11.1092C16.7247 9.79517 16.21 8.62154 15.7575 7.78937C15.4152 7.16003 15.0996 6.70913 14.9547 6.51176C14.7771 6.26989 14.5456 6.08319 14.216 6.04872C13.9533 6.02125 13.6902 6.09684 13.4912 6.25692L12.021 7.43985C12.1473 5.56367 11.4295 3.98738 10.5385 2.79947C9.89155 1.93687 9.15335 1.27438 8.58162 0.829023C8.29444 0.60525 8.0454 0.433366 7.86522 0.315666C7.77494 0.256756 7.70167 0.211218 7.64906 0.179352C7.33755 -0.00939327 6.96395 -0.0696726 6.62134 0.0987699ZM4.49408 16.6298C4.48577 16.4729 4.48096 16.3086 4.48096 16.1387C4.48097 15.2293 4.61885 14.0815 5.16489 13.0147C5.34778 12.6574 5.57646 12.3091 5.86111 11.982C6.1006 11.7067 6.49798 11.5929 6.86512 11.6944C7.23224 11.7959 7.49556 12.0923 7.53023 12.4434C7.74272 14.5927 8.68252 15.7947 9.50592 16.4627C9.92668 16.8042 10.3326 17.0181 10.6266 17.145C11.7615 17.2724 14.0019 15.2764 14.4815 14.4981C15.1029 13.49 15.2144 12.3972 15.058 11.3426C14.8753 10.111 14.3264 8.9712 13.8898 8.2318L10.9709 10.5803C10.6373 10.8488 10.1447 10.8662 9.78962 10.622C9.43452 10.3777 9.31352 9.93847 9.49934 9.56825C10.7357 7.10511 10.0282 5.16205 8.99187 3.78027C8.5804 3.23179 8.11736 2.77509 7.70317 2.42133C7.62793 2.6641 7.5338 2.92723 7.4159 3.20383C7.2485 3.5966 7.03262 4.01792 6.75474 4.44684C6.13248 5.4073 5.19947 6.40591 3.80442 7.20759C2.4401 7.99158 1.63121 10.0517 1.94346 12.3288C2.17887 14.0456 3.02714 15.6523 4.49408 16.6298Z" fill="white"/>
</svg>
