<svg width="20" height="25" viewBox="0 0 20 25" fill="none" xmlns="http://www.w3.org/2000/svg">
<path d="M9.99993 11.1111C11.1301 11.1111 12.2349 10.7853 13.1746 10.1748C14.1143 9.56438 14.8467 8.69672 15.2792 7.68158C15.7117 6.66643 15.8249 5.54939 15.6044 4.47172C15.3839 3.39405 14.8397 2.40414 14.0405 1.62719C13.2414 0.850228 12.2232 0.321113 11.1147 0.106751C10.0063 -0.107611 8.85732 0.00240712 7.81317 0.422894C6.76902 0.843381 5.87657 1.55545 5.24868 2.46906C4.62078 3.38266 4.28564 4.45677 4.28564 5.55556C4.28735 7.02847 4.88993 8.44059 5.9612 9.4821C7.03247 10.5236 8.48493 11.1095 9.99993 11.1111ZM9.99993 2.77778C10.565 2.77778 11.1174 2.94069 11.5873 3.24592C12.0571 3.55115 12.4233 3.98498 12.6396 4.49255C12.8558 5.00012 12.9124 5.55864 12.8022 6.09748C12.6919 6.63631 12.4198 7.13126 12.0202 7.51974C11.6207 7.90822 11.1116 8.17278 10.5573 8.27996C10.0031 8.38714 9.42862 8.33213 8.90655 8.12189C8.38447 7.91165 7.93825 7.55561 7.6243 7.09881C7.31036 6.642 7.14279 6.10495 7.14279 5.55556C7.14354 4.81907 7.44481 4.11296 7.98046 3.59218C8.51611 3.07141 9.2424 2.77852 9.99993 2.77778Z" fill="white"/>
<path d="M19.8493 18.8239L19.548 18.2367C18.6614 16.5128 17.2986 15.0629 15.6122 14.0496C13.9258 13.0364 11.9825 12.4996 10 12.4996C8.01753 12.4996 6.07422 13.0364 4.38783 14.0496C2.70144 15.0629 1.33859 16.5128 0.452 18.2367L0.150715 18.8232C0.0514456 19.0161 -0.000161307 19.2288 3.78755e-07 19.4445V23.6111C3.78755e-07 23.9795 0.15051 24.3328 0.41842 24.5932C0.686329 24.8537 1.04969 25 1.42857 25H18.5714C18.9503 25 19.3137 24.8537 19.5816 24.5932C19.8495 24.3328 20 23.9795 20 23.6111V19.4445C20.0001 19.229 19.9484 19.0166 19.8493 18.8239ZM17.1429 22.2222H2.85714V19.772L3.00786 19.4791C3.65723 18.2167 4.6553 17.1551 5.89025 16.4131C7.12521 15.6712 8.54827 15.2782 10 15.2782C11.4517 15.2782 12.8748 15.6712 14.1097 16.4131C15.3447 17.1551 16.3428 18.2167 16.9921 19.4791L17.1429 19.772V22.2222Z" fill="white"/>
</svg>
