<svg width="20" height="20" viewBox="0 0 20 20" fill="none" xmlns="http://www.w3.org/2000/svg">
<g clip-path="url(#clip0_1138_1593)">
<mask id="mask0_1138_1593" style="mask-type:luminance" maskUnits="userSpaceOnUse" x="0" y="0" width="20" height="20">
<path d="M20 0H0V20H20V0Z" fill="white"/>
</mask>
<g mask="url(#mask0_1138_1593)">
<path d="M9.99991 20C15.5139 20 19.9999 15.514 19.9999 10.0001C19.9999 4.48604 15.5139 0 9.99991 0C4.48597 0 0 4.48604 0 10.0001C0 15.514 4.48597 20 9.99991 20ZM3.4801 14.9371C4.27245 14.6255 5.27009 14.3771 6.39142 14.2069C6.54365 15.1209 6.74572 15.9683 6.99481 16.7157C7.12529 17.1072 7.26268 17.4527 7.40462 17.7596C5.82869 17.2312 4.46549 16.2352 3.4801 14.9371ZM1.81817 10.0001C1.81817 8.8034 2.07647 7.66595 2.54005 6.64051C3.52325 7.06141 4.76525 7.38705 6.16439 7.59729C6.09626 8.37371 6.06057 9.17927 6.06057 10.0001C6.06057 10.8208 6.09626 11.6265 6.16439 12.4028C4.76525 12.6131 3.52319 12.9387 2.54011 13.3596C2.07647 12.3342 1.81817 11.1967 1.81817 10.0001ZM9.99991 1.81817C10.1957 1.81817 10.7663 2.31702 11.2803 3.85925C11.4915 4.49318 11.6654 5.21215 11.7994 5.99063C11.215 6.03148 10.6123 6.05305 9.99973 6.05305C9.38727 6.05305 8.78479 6.03154 8.20049 5.99063C8.33456 5.21215 8.50831 4.49325 8.71965 3.85931C9.23373 2.31702 9.80418 1.81817 9.99991 1.81817ZM9.99973 7.87123C10.6923 7.87123 11.3712 7.84577 12.0287 7.79723C12.0895 8.50662 12.1212 9.24518 12.1212 10.0001C12.1212 10.755 12.0895 11.4934 12.0288 12.2028C11.3712 12.1543 10.6925 12.1288 9.99991 12.1288C9.30745 12.1288 8.62867 12.1543 7.97116 12.2028C7.91044 11.4934 7.87874 10.7549 7.87874 10.0001C7.87874 9.24518 7.91044 8.50667 7.97116 7.79723C8.62862 7.84577 9.30736 7.87123 9.99973 7.87123ZM18.1817 10.0001C18.1817 11.1966 17.9234 12.3341 17.4598 13.3595C16.4766 12.9385 15.2346 12.613 13.8355 12.4028C13.9036 11.6265 13.9393 10.8208 13.9393 10.0001C13.9393 9.17918 13.9036 8.37365 13.8355 7.59723C15.2346 7.38698 16.4766 7.06129 17.4597 6.64033C17.9234 7.66584 18.1817 8.80334 18.1817 10.0001ZM9.99991 18.1818C9.80418 18.1818 9.23373 17.6829 8.7197 16.1407C8.50837 15.5067 8.33462 14.7878 8.20049 14.0094C8.78492 13.9685 9.38736 13.9469 9.99991 13.9469C10.6125 13.9469 11.215 13.9685 11.7994 14.0094C11.6654 14.7878 11.4915 15.5068 11.2803 16.1407C10.7663 17.683 10.1957 18.1818 9.99991 18.1818ZM12.5954 17.7596C12.7373 17.4527 12.8746 17.1072 13.0051 16.7157C13.2543 15.9683 13.4564 15.1209 13.6085 14.2069C14.7298 14.3771 15.7275 14.6255 16.5198 14.9371C15.5345 16.2351 14.1713 17.2311 12.5954 17.7596ZM16.5196 5.06282C15.7275 5.37445 14.7298 5.62287 13.6085 5.79299C13.4563 4.87906 13.2543 4.03167 13.0051 3.28428C12.8747 2.89283 12.7373 2.54732 12.5953 2.24029C14.1712 2.76889 15.5344 3.76483 16.5196 5.06282ZM7.40462 2.24035C7.26268 2.54725 7.12535 2.89283 6.99481 3.28428C6.74572 4.03179 6.54365 4.87912 6.39142 5.79312C5.27009 5.62294 4.27245 5.37457 3.4801 5.063C4.46543 3.76495 5.82863 2.76883 7.40462 2.24035Z" fill="#E7FE55"/>
</g>
</g>
<defs>
<clipPath id="clip0_1138_1593">
<rect width="20" height="20" fill="white"/>
</clipPath>
</defs>
</svg>
