<svg width="22" height="22" viewBox="0 0 22 22" fill="none" xmlns="http://www.w3.org/2000/svg">
<g clip-path="url(#clip0_78_506)">
<path d="M10.9999 22C17.0653 22 21.9999 17.0654 21.9999 11.0001C21.9999 4.93464 17.0653 0 10.9999 0C4.93457 0 0 4.93464 0 11.0001C0 17.0654 4.93457 22 10.9999 22ZM3.82811 16.4308C4.6997 16.088 5.7971 15.8148 7.03056 15.6276C7.19802 16.633 7.42029 17.5651 7.69429 18.3873C7.83782 18.8179 7.98895 19.198 8.14508 19.5356C6.41156 18.9543 4.91204 17.8587 3.82811 16.4308ZM1.99999 11.0001C1.99999 9.68374 2.28412 8.43255 2.79405 7.30456C3.87558 7.76755 5.24177 8.12575 6.78083 8.35702C6.70589 9.21108 6.66663 10.0972 6.66663 11.0001C6.66663 11.9029 6.70589 12.7891 6.78083 13.6431C5.24177 13.8744 3.87551 14.2326 2.79412 14.6956C2.28412 13.5676 1.99999 12.3164 1.99999 11.0001ZM10.9999 1.99999C11.2153 1.99999 11.8429 2.54872 12.4083 4.24517C12.6407 4.9425 12.8319 5.73337 12.9793 6.58969C12.3365 6.63463 11.6735 6.65836 10.9997 6.65836C10.326 6.65836 9.66327 6.63469 9.02054 6.58969C9.16801 5.73337 9.35914 4.94257 9.59161 4.24524C10.1571 2.54872 10.7846 1.99999 10.9999 1.99999ZM10.9997 8.65835C11.7615 8.65835 12.5083 8.63035 13.2316 8.57695C13.2984 9.35728 13.3333 10.1697 13.3333 11.0001C13.3333 11.8305 13.2984 12.6427 13.2317 13.4231C12.5083 13.3697 11.7617 13.3417 10.9999 13.3417C10.2382 13.3417 9.49154 13.3697 8.76828 13.4231C8.70148 12.6427 8.66661 11.8304 8.66661 11.0001C8.66661 10.1697 8.70148 9.35734 8.76828 8.57695C9.49148 8.63035 10.2381 8.65835 10.9997 8.65835ZM19.9999 11.0001C19.9999 12.3163 19.7157 13.5675 19.2058 14.6954C18.1243 14.2324 16.7581 13.8743 15.219 13.6431C15.294 12.7891 15.3332 11.9029 15.3332 11.0001C15.3332 10.0971 15.294 9.21101 15.219 8.35695C16.7581 8.12568 18.1243 7.76742 19.2057 7.30436C19.7157 8.43242 19.9999 9.68367 19.9999 11.0001ZM10.9999 20C10.7846 20 10.1571 19.4512 9.59167 17.7548C9.35921 17.0574 9.16808 16.2666 9.02054 15.4103C9.66341 15.3653 10.3261 15.3416 10.9999 15.3416C11.6737 15.3416 12.3365 15.3653 12.9793 15.4103C12.8319 16.2666 12.6407 17.0575 12.4083 17.7548C11.8429 19.4513 11.2153 20 10.9999 20ZM13.8549 19.5356C14.011 19.198 14.1621 18.8179 14.3056 18.3873C14.5797 17.5651 14.802 16.633 14.9694 15.6276C16.2028 15.8148 17.3002 16.088 18.1718 16.4308C17.0879 17.8586 15.5884 18.9542 13.8549 19.5356ZM18.1716 5.5691C17.3002 5.9119 16.2028 6.18516 14.9694 6.37229C14.8019 5.36697 14.5797 4.43484 14.3056 3.61271C14.1622 3.18211 14.011 2.80205 13.8548 2.46432C15.5883 3.04578 17.0878 4.14131 18.1716 5.5691ZM8.14508 2.46438C7.98895 2.80198 7.83789 3.18211 7.69429 3.61271C7.42029 4.43497 7.19802 5.36703 7.03056 6.37243C5.7971 6.18523 4.6997 5.91203 3.82811 5.5693C4.91197 4.14144 6.41149 3.04571 8.14508 2.46438Z" fill="white"/>
</g>
<defs>
<clipPath id="clip0_78_506">
<rect width="22" height="22" fill="white"/>
</clipPath>
</defs>
</svg>
