<svg width="30" height="30" viewBox="0 0 30 30" fill="none" xmlns="http://www.w3.org/2000/svg">
<path d="M25.63 4.35574C22.9264 1.66467 19.1916 0 15.0658 0C6.81531 0 0.125632 6.65766 0.125632 14.8709C0.125632 17.604 0.866361 20.1641 2.15786 22.3649L2.11967 22.2949L0 30L7.91886 27.9322C9.98024 29.0716 12.4396 29.7419 15.0568 29.7419H15.0628C23.3133 29.7389 30 23.0802 30 14.8679C30 10.7633 28.3296 7.04782 25.629 4.35674L25.63 4.35574ZM15.0628 27.2299H15.0578C12.7271 27.2299 10.5451 26.5896 8.6827 25.4762L8.73899 25.5072L8.28571 25.2401L3.58706 26.4676L4.84036 21.9068L4.54488 21.4396C3.35388 19.5768 2.64632 17.3069 2.64632 14.8719C2.64632 8.04722 8.2053 2.51401 15.0618 2.51401C21.9183 2.51401 27.4773 8.04722 27.4773 14.8719C27.4773 21.6967 21.9203 27.2299 15.0628 27.2299ZM21.8731 17.9752C21.5002 17.7891 19.665 16.8918 19.3233 16.7667C18.9805 16.6427 18.7313 16.5816 18.482 16.9538C18.2348 17.3249 17.5192 18.1613 17.3011 18.4094C17.084 18.6585 16.8649 18.6885 16.492 18.5034C15.3362 18.0372 14.3432 17.416 13.4799 16.6507L13.4899 16.6597C12.6869 15.9194 11.9984 15.072 11.4426 14.1377L11.4145 14.0856C11.1974 13.7145 11.3913 13.5134 11.5773 13.3283C11.7451 13.1623 11.9512 12.8942 12.1371 12.6781C12.2838 12.499 12.4095 12.2939 12.5049 12.0738L12.511 12.0568C12.5542 11.9698 12.5793 11.8687 12.5793 11.7607C12.5793 11.6297 12.5421 11.5076 12.4778 11.4036L12.4798 11.4066C12.3853 11.2205 11.6396 9.39176 11.329 8.64746C11.0255 7.92317 10.7169 8.02221 10.4888 8.0102C10.2717 8.0002 10.0224 7.9982 9.77319 7.9982C9.37619 8.0082 9.02342 8.18627 8.78019 8.46138L8.77919 8.46339C7.97313 9.22469 7.47261 10.2981 7.47261 11.4876C7.47261 11.5136 7.47261 11.5406 7.47362 11.5666V11.5626C7.60528 13.0302 8.15806 14.3477 9.00834 15.4212L8.99628 15.4062C10.6084 17.7861 12.7572 19.6899 15.2789 20.9724L15.3734 21.0154C15.9242 21.2635 16.6297 21.5286 17.3513 21.7557L17.5011 21.7967C17.9453 21.9368 18.4569 22.0178 18.9876 22.0178C19.2921 22.0178 19.5916 21.9908 19.8811 21.9398L19.8499 21.9438C20.9243 21.7207 21.8158 21.0754 22.3595 20.1941L22.3686 20.1771C22.5344 19.8109 22.6309 19.3838 22.6309 18.9346C22.6309 18.7495 22.6148 18.5684 22.5837 18.3924L22.5867 18.4114C22.4942 18.2563 22.245 18.1643 21.8711 17.9772L21.8731 17.9752Z" fill="white"/>
</svg>
