<svg width="25" height="25" viewBox="0 0 25 25" fill="none" xmlns="http://www.w3.org/2000/svg">
<path d="M21.3583 3.62979C19.1053 1.38722 15.993 0 12.5549 0C5.67942 0 0.104694 5.54805 0.104694 12.3925C0.104694 14.67 0.721967 16.8034 1.79822 18.6375L1.76639 18.5791L0 25L6.59905 23.2768C8.31686 24.2264 10.3663 24.7849 12.5473 24.7849H12.5523C19.4278 24.7824 25 19.2335 25 12.39C25 8.96942 23.608 5.87318 21.3575 3.63062L21.3583 3.62979ZM12.5523 22.6916H12.5482C10.6059 22.6916 8.78756 22.158 7.23559 21.2302L7.28249 21.256L6.90475 21.0334L2.98921 22.0563L4.03364 18.2556L3.7874 17.8663C2.7949 16.314 2.20527 14.4224 2.20527 12.3933C2.20527 6.70602 6.83775 2.095 12.5515 2.095C18.2653 2.095 22.8978 6.70602 22.8978 12.3933C22.8978 18.0806 18.2669 22.6916 12.5523 22.6916ZM18.2276 14.9793C17.9168 14.8243 16.3875 14.0765 16.1027 13.9723C15.8171 13.8689 15.6094 13.818 15.4017 14.1282C15.1957 14.4374 14.5993 15.1344 14.4176 15.3411C14.2367 15.5487 14.0541 15.5737 13.7433 15.4195C12.7802 15.031 11.9527 14.5133 11.2332 13.8755L11.2416 13.8831C10.5724 13.2661 9.99866 12.56 9.5355 11.7814L9.51204 11.738C9.33113 11.4287 9.49278 11.2612 9.64773 11.1069C9.7876 10.9686 9.9593 10.7451 10.1142 10.5651C10.2365 10.4158 10.3412 10.2449 10.4208 10.0615L10.4258 10.0474C10.4618 9.97482 10.4828 9.89062 10.4828 9.80059C10.4828 9.69138 10.4518 9.58967 10.3982 9.50297L10.3998 9.50547C10.3211 9.35041 9.69966 7.82646 9.44085 7.20622C9.18791 6.60264 8.93079 6.68517 8.74066 6.67517C8.55975 6.66683 8.35204 6.66517 8.14433 6.66517C7.81349 6.6735 7.51951 6.8219 7.31683 7.05115L7.31599 7.05282C6.64428 7.68724 6.22718 8.58177 6.22718 9.573C6.22718 9.59467 6.22718 9.61718 6.22801 9.63886V9.63552C6.33773 10.8585 6.79839 11.9564 7.50695 12.851L7.4969 12.8385C8.84033 14.8218 10.631 16.4082 12.7324 17.477L12.8112 17.5128C13.2701 17.7196 13.8581 17.9405 14.4594 18.1298L14.5842 18.1639C14.9544 18.2806 15.3807 18.3482 15.823 18.3482C16.0767 18.3482 16.3263 18.3257 16.5676 18.2831L16.5416 18.2865C17.4369 18.1006 18.1798 17.5629 18.633 16.8284L18.6405 16.8142C18.7787 16.5091 18.8591 16.1531 18.8591 15.7788C18.8591 15.6246 18.8457 15.4737 18.8197 15.327L18.8222 15.3428C18.7452 15.2136 18.5375 15.1369 18.2259 14.981L18.2276 14.9793Z" fill="#686868"/>
</svg>
