<svg width="39" height="25" viewBox="0 0 39 25" fill="none" xmlns="http://www.w3.org/2000/svg">
<path d="M37.5002 3.92333C37.2921 3.16084 36.8749 2.46454 36.291 1.90557C35.7071 1.34661 34.9777 0.945008 34.1772 0.741815C29.3237 0.197601 24.4382 -0.0476408 19.5513 0.00762375C14.6645 -0.0476408 9.77906 0.197601 4.92553 0.741815C4.12502 0.945008 3.39558 1.34661 2.81176 1.90557C2.22792 2.46454 1.81065 3.16084 1.60254 3.92333C1.07089 6.75762 0.812399 9.63218 0.830301 12.5111C0.81151 15.4049 1.07 18.2943 1.60254 21.1434C1.82144 21.8936 2.24351 22.576 2.82662 23.1226C3.40971 23.6692 4.13344 24.0608 4.92553 24.2582C9.77906 24.8023 14.6645 25.0477 19.5513 24.9923C24.4382 25.0477 29.3237 24.8023 34.1772 24.2582C34.9693 24.0608 35.6931 23.6692 36.276 23.1226C36.8592 22.576 37.2813 21.8936 37.5002 21.1434C38.0328 18.2943 38.2911 15.4049 38.2724 12.5111C38.2904 9.63218 38.0318 6.75762 37.5002 3.92333ZM15.7135 17.8284V7.23829L25.5187 12.5111L15.7135 17.8062V17.8284Z" fill="#5A5A5A"/>
</svg>
